<?xml version="1.0" encoding="utf-8" standalone="no"?>
<!DOCTYPE svg PUBLIC "-//W3C//DTD SVG 1.1//EN"
  "http://www.w3.org/Graphics/SVG/1.1/DTD/svg11.dtd">
<svg xmlns:xlink="http://www.w3.org/1999/xlink" width="314pt" height="68.52pt" viewBox="0 0 314 68.52" xmlns="http://www.w3.org/2000/svg" version="1.1">
 <metadata>
  <rdf:RDF xmlns:dc="http://purl.org/dc/elements/1.1/" xmlns:cc="http://creativecommons.org/ns#" xmlns:rdf="http://www.w3.org/1999/02/22-rdf-syntax-ns#">
   <cc:Work>
    <dc:type rdf:resource="http://purl.org/dc/dcmitype/StillImage"/>
    <dc:date>2026-09-09T21:50:31.095261</dc:date>
    <dc:format>image/svg+xml</dc:format>
    <dc:creator>
     <cc:Agent>
      <dc:title>Matplotlib v3.10.8, https://matplotlib.org/</dc:title>
     </cc:Agent>
    </dc:creator>
   </cc:Work>
  </rdf:RDF>
 </metadata>
 <defs>
  <style type="text/css">*{stroke-linejoin: round; stroke-linecap: butt}</style>
 </defs>
 <g id="figure_1">
  <g id="patch_1">
   <path d="M 0 68.52 
L 314 68.52 
L 314 0 
L 0 0 
L 0 68.52 
z
" style="fill: none"/>
  </g>
  <g id="text_1">
   <!-- $A_n=\frac{\partial S_n}{\partial z_n},\qquad B_n=\frac{\partial S_n}{\partial p}$ -->
   <g style="fill: #17191c" transform="translate(5.76 41.86) scale(0.38 -0.38)">
    <defs>
     <path id="STIXGeneral-Italic-41" d="M 3610 0 
L 2042 0 
L 2042 102 
Q 2330 115 2432 192 
Q 2534 269 2534 442 
Q 2534 493 2522 608 
L 2394 1446 
L 986 1446 
L 608 736 
Q 467 474 467 314 
Q 467 122 864 102 
L 864 0 
L -326 0 
L -326 102 
Q -109 147 28 307 
Q 166 467 531 1101 
L 2355 4275 
L 2522 4275 
L 3110 736 
Q 3174 339 3264 230 
Q 3354 122 3610 102 
L 3610 0 
z
M 2362 1677 
L 2074 3360 
L 1120 1677 
L 2362 1677 
z
" transform="scale(0.015625)"/>
     <path id="STIXGeneral-Italic-6e" d="M 2944 749 
L 3034 666 
Q 2707 218 2534 80 
Q 2362 -58 2138 -58 
Q 2010 -58 1923 28 
Q 1837 115 1837 288 
Q 1837 390 1939 768 
L 2221 1805 
Q 2310 2150 2310 2310 
Q 2310 2496 2157 2496 
Q 1971 2496 1750 2275 
Q 1530 2054 1210 1587 
Q 998 1274 899 1024 
Q 800 774 570 0 
L 90 0 
L 704 2240 
Q 717 2304 717 2349 
Q 717 2445 630 2480 
Q 544 2515 301 2522 
L 301 2624 
Q 550 2675 857 2729 
Q 1165 2784 1338 2822 
L 1363 2810 
L 934 1414 
Q 1408 2170 1753 2496 
Q 2099 2822 2413 2822 
Q 2611 2822 2720 2716 
Q 2829 2611 2829 2432 
Q 2829 2272 2765 2048 
L 2406 749 
Q 2317 429 2317 358 
Q 2317 243 2419 243 
Q 2541 243 2810 582 
Q 2854 634 2944 749 
z
" transform="scale(0.015625)"/>
     <path id="STIXGeneral-Regular-3d" d="M 4077 2048 
L 307 2048 
L 307 2470 
L 4077 2470 
L 4077 2048 
z
M 4077 768 
L 307 768 
L 307 1190 
L 4077 1190 
L 4077 768 
z
" transform="scale(0.015625)"/>
     <path id="STIXGeneral-Regular-2202" d="M 1248 4000 
L 1184 4128 
Q 1427 4275 1811 4275 
Q 3014 4275 3014 2611 
Q 3014 2298 2963 1965 
Q 2912 1632 2777 1261 
Q 2643 890 2438 598 
Q 2234 307 1894 118 
Q 1555 -70 1126 -70 
Q 685 -70 470 224 
Q 256 518 256 966 
Q 256 1664 739 2224 
Q 1222 2784 1901 2784 
Q 2342 2784 2515 2477 
Q 2560 2726 2560 2925 
Q 2560 3418 2365 3750 
Q 2170 4083 1722 4083 
Q 1510 4083 1248 4000 
z
M 2349 2042 
Q 2349 2323 2230 2457 
Q 2112 2592 1958 2592 
Q 1491 2592 1132 2013 
Q 774 1434 774 749 
Q 774 122 1203 122 
Q 1549 122 1827 499 
Q 2106 877 2253 1414 
Q 2349 1766 2349 2042 
z
" transform="scale(0.015625)"/>
     <path id="STIXGeneral-Italic-53" d="M 3251 4269 
L 2995 2989 
L 2880 3008 
Q 2880 3539 2720 3795 
Q 2560 4051 2118 4051 
Q 1786 4051 1594 3881 
Q 1402 3712 1402 3411 
Q 1402 3168 1504 3005 
Q 1606 2842 2035 2413 
Q 2464 1978 2611 1715 
Q 2758 1453 2758 1133 
Q 2758 589 2390 237 
Q 2022 -115 1466 -115 
Q 1222 -115 800 32 
Q 595 109 499 109 
Q 288 109 224 -96 
L 109 -96 
L 326 1338 
L 454 1325 
Q 442 1267 442 1178 
Q 442 710 701 409 
Q 960 109 1363 109 
Q 1734 109 1968 336 
Q 2202 563 2202 928 
Q 2202 1139 2118 1308 
Q 2035 1478 1818 1715 
L 1568 1984 
Q 1549 2003 1459 2102 
Q 1370 2202 1318 2253 
Q 1030 2560 934 2755 
Q 838 2950 838 3213 
Q 838 3699 1168 3980 
Q 1498 4262 1978 4262 
Q 2310 4262 2522 4173 
Q 2707 4102 2816 4102 
Q 2925 4102 2982 4134 
Q 3040 4166 3104 4269 
L 3251 4269 
z
" transform="scale(0.015625)"/>
     <path id="STIXGeneral-Italic-7a" d="M 2432 2669 
L 582 467 
Q 877 403 1021 307 
Q 1165 211 1350 -64 
Q 1568 -384 1798 -384 
Q 1971 -384 1971 -288 
Q 1971 -256 1939 -192 
Q 1888 -90 1888 -13 
Q 1894 70 1958 137 
Q 2022 205 2099 205 
Q 2202 205 2262 141 
Q 2323 77 2323 -32 
Q 2323 -230 2156 -374 
Q 1990 -518 1728 -518 
Q 1459 -518 1005 -237 
Q 570 32 333 32 
Q 186 32 45 -83 
L -13 -26 
L 1971 2355 
L 1101 2355 
Q 845 2355 729 2281 
Q 614 2208 518 1971 
L 416 1997 
L 621 2739 
L 2432 2739 
L 2432 2669 
z
" transform="scale(0.015625)"/>
     <path id="STIXGeneral-Regular-2c" d="M 531 -902 
L 467 -781 
Q 998 -422 998 -96 
Q 998 -13 909 -13 
Q 883 -13 822 -25 
Q 762 -38 723 -38 
Q 352 -38 352 288 
Q 352 454 457 553 
Q 563 653 736 653 
Q 954 653 1101 496 
Q 1248 339 1248 96 
Q 1248 -198 1053 -473 
Q 858 -749 531 -902 
z
" transform="scale(0.015625)"/>
     <path id="STIXGeneral-Italic-42" d="M 832 4179 
L 2432 4179 
Q 3763 4179 3763 3219 
Q 3763 2771 3354 2496 
Q 3136 2349 2643 2246 
L 2643 2240 
Q 3450 1997 3450 1280 
Q 3450 653 2973 326 
Q 2496 0 1690 0 
L -51 0 
L -51 102 
Q 211 141 304 230 
Q 397 320 480 614 
L 1254 3405 
Q 1325 3654 1325 3814 
Q 1325 3955 1229 4003 
Q 1133 4051 832 4077 
L 832 4179 
z
M 1587 2323 
L 1830 2323 
Q 2458 2323 2787 2572 
Q 3117 2822 3117 3296 
Q 3117 3654 2937 3820 
Q 2758 3987 2368 3987 
Q 2221 3987 2166 3977 
Q 2112 3968 2067 3920 
Q 2022 3872 1990 3757 
L 1587 2323 
z
M 1523 2118 
L 1318 1357 
Q 1094 506 1094 461 
Q 1094 192 1523 192 
Q 2086 192 2422 473 
Q 2758 755 2758 1280 
Q 2758 1568 2636 1773 
Q 2515 1978 2330 2042 
Q 2112 2118 1523 2118 
z
" transform="scale(0.015625)"/>
     <path id="STIXGeneral-Italic-70" d="M 1376 2739 
L 1190 2099 
Q 1670 2822 2285 2822 
Q 2637 2822 2829 2611 
Q 3021 2400 3021 2022 
Q 3021 1235 2422 582 
Q 1824 -70 1120 -70 
Q 890 -70 678 38 
Q 422 -1018 422 -1024 
Q 422 -1126 508 -1168 
Q 595 -1210 819 -1210 
L 819 -1312 
L -480 -1312 
L -480 -1210 
Q -275 -1203 -188 -1120 
Q -102 -1037 -45 -806 
L 691 1958 
Q 794 2330 794 2413 
Q 794 2586 512 2586 
L 371 2586 
L 358 2682 
L 1357 2822 
Q 1389 2822 1389 2797 
Q 1382 2765 1376 2739 
z
M 2445 2003 
Q 2445 2285 2352 2416 
Q 2259 2547 2048 2547 
Q 1798 2547 1548 2329 
Q 1299 2112 1184 1818 
Q 1043 1453 905 953 
Q 768 454 768 294 
Q 768 186 854 118 
Q 941 51 1075 51 
Q 1574 51 2003 659 
Q 2445 1274 2445 2003 
z
" transform="scale(0.015625)"/>
    </defs>
    <use xlink:href="#STIXGeneral-Italic-41" transform="translate(0 0.741562)"/>
    <use xlink:href="#STIXGeneral-Italic-6e" transform="translate(61.099991 -12.486563) scale(0.7)"/>
    <use xlink:href="#STIXGeneral-Regular-3d" transform="translate(114.949352 0.741562)"/>
    <use xlink:href="#STIXGeneral-Regular-2202" transform="translate(197.889333 48.242188) scale(0.7)"/>
    <use xlink:href="#STIXGeneral-Italic-53" transform="translate(230.859326 48.242188) scale(0.7)"/>
    <use xlink:href="#STIXGeneral-Italic-6e" transform="translate(265.859315 38.9825) scale(0.49)"/>
    <use xlink:href="#STIXGeneral-Regular-2202" transform="translate(201.889333 -39.469375) scale(0.7)"/>
    <use xlink:href="#STIXGeneral-Italic-7a" transform="translate(234.859326 -39.469375) scale(0.7)"/>
    <use xlink:href="#STIXGeneral-Italic-6e" transform="translate(262.089322 -48.729062) scale(0.49)"/>
    <use xlink:href="#STIXGeneral-Regular-2c" transform="translate(305.945871 0.741562)"/>
    <use xlink:href="#STIXGeneral-Italic-42" transform="translate(489.785815 0.741562)"/>
    <use xlink:href="#STIXGeneral-Italic-6e" transform="translate(550.885806 -12.486563) scale(0.7)"/>
    <use xlink:href="#STIXGeneral-Regular-3d" transform="translate(604.735166 0.741562)"/>
    <use xlink:href="#STIXGeneral-Regular-2202" transform="translate(687.675148 48.242188) scale(0.7)"/>
    <use xlink:href="#STIXGeneral-Italic-53" transform="translate(720.645141 48.242188) scale(0.7)"/>
    <use xlink:href="#STIXGeneral-Italic-6e" transform="translate(755.64513 38.9825) scale(0.49)"/>
    <use xlink:href="#STIXGeneral-Regular-2202" transform="translate(701.675148 -39.469375) scale(0.7)"/>
    <use xlink:href="#STIXGeneral-Italic-70" transform="translate(734.645141 -39.469375) scale(0.7)"/>
    <path d="M 197.889333 13.538438 
L 197.889333 19.788438 
L 293.445871 19.788438 
L 293.445871 13.538438 
L 197.889333 13.538438 
z
"/>
    <path d="M 687.675148 13.538438 
L 687.675148 19.788438 
L 783.231685 19.788438 
L 783.231685 13.538438 
L 687.675148 13.538438 
z
"/>
   </g>
  </g>
 </g>
</svg>
