$MeshFormat
2.2 0 8
$EndMeshFormat
$PhysicalNames
7
1 1 "bottom"
1 2 "right"
1 3 "top"
1 4 "left"
1 5 "notch_upper"
1 6 "notch_lower"
2 7 "plate"
$EndPhysicalNames
$Nodes
1091
1 0 0 0
2 40 0 0
3 40 40 0
4 0 40 0
5 0 20.001 0
6 0 19.999 0
7 20 20 0
8 40 20 0
9 1.999999999998196 0 0
10 3.999999999996739 0 0
11 5.999999999993115 0 0
12 7.999999999987272 0 0
13 9.999999999981428 0 0
14 11.99999999997558 0 0
15 13.99999999996974 0 0
16 15.99999999996404 0 0
17 17.99999999996652 0 0
18 19.99999999996955 0 0
19 21.99999999997259 0 0
20 23.99999999997562 0 0
21 25.99999999997866 0 0
22 27.99999999998169 0 0
23 29.99999999998473 0 0
24 31.99999999998777 0 0
25 33.99999999999083 0 0
26 35.99999999999388 0 0
27 37.99999999999694 0 0
28 40 1.995699220604928 0
29 40 3.991398441206771 0
30 40 5.987097661807494 0
31 40 7.98279688240825 0
32 40 9.97849610301752 0
33 40 11.9741953236271 0
34 40 13.96989454423668 0
35 40 15.94961001302801 0
36 40 17.52108432563042 0
37 40 18.63911879153191 0
38 40 19.4341826276188 0
39 40 20.56581737238036 0
40 40 21.36088120846569 0
41 40 22.47891567436461 0
42 40 24.05038998696264 0
43 40 26.03010545575059 0
44 40 28.02580467635764 0
45 40 30.02150389696468 0
46 40 32.01720311757173 0
47 40 34.01290233817879 0
48 40 36.00860155878586 0
49 40 38.00430077939293 0
50 38.00000000000001 40 0
51 36.00000000000001 40 0
52 34.00000000000001 40 0
53 32.00000000000001 40 0
54 30.00000000000002 40 0
55 28.00000000000003 40 0
56 26.00000000000003 40 0
57 24.00000000000004 40 0
58 22.00000000000004 40 0
59 20.00000000000004 40 0
60 18.00000000000005 40 0
61 16.00000000000005 40 0
62 14.00000000000006 40 0
63 12.00000000000006 40 0
64 10.00000000000007 40 0
65 8.000000000000071 40 0
66 6.000000000000057 40 0
67 4.000000000000043 40 0
68 2.000000000000014 40 0
69 0 38.00438679105982 0
70 0 36.00877358211964 0
71 0 34.01316037317713 0
72 0 32.01754716423663 0
73 0 30.02193395529652 0
74 0 28.02632074634278 0
75 0 26.03070753739182 0
76 0 24.05110008260822 0
77 0 22.47976305197355 0
78 0 21.36180985175415 0
79 0 20.56679244648457 0
80 0.2756563880080855 20.0009862171806 0
81 0.5437909162815858 20.00097281045419 0
82 0.8076356516694436 20.00095961821742 0
83 1.071406846951085 20.00094642965765 0
84 1.33952633412834 20.0009330236833 0
85 1.604333997063212 20.00091978330015 0
86 1.867346506025056 20.0009066326747 0
87 2.135072325966753 20.0008932463837 0
88 2.400854009469642 20.00087995729953 0
89 2.663473945350812 20.00086682630273 0
90 2.930420958886392 20.00085347895206 0
91 3.197196257454598 20.00084014018713 0
92 3.459782358518406 20.00082701088208 0
93 3.725738683902055 20.00081371306581 0
94 3.993354691058411 20.00080033226545 0
95 4.256271845229763 20.00078718640774 0
96 4.52124979529019 20.00077393751024 0
97 4.789327488796951 20.00076053362556 0
98 5.052939505231818 20.00074735302474 0
99 5.31695218604621 20.0007341523907 0
100 5.585113489029392 20.00072074432555 0
101 5.849672906473351 20.00070751635468 0
102 6.112843567589332 20.00069435782162 0
103 6.380703307795782 20.00068096483461 0
104 6.646235635001069 20.00066768821825 0
105 6.908918939626643 20.00065455405302 0
106 7.176099353825947 20.00064119503231 0
107 7.442619228780011 20.00062786903856 0
108 7.705179619479912 20.00061474101903 0
109 7.971386746554137 20.00060143066267 0
110 8.238823970129177 20.00058805880149 0
111 8.501623795473201 20.00057491881023 0
112 8.766847581620961 20.00056165762092 0
113 9.034845475501132 20.00054825772623 0
114 9.298245107506396 20.00053508774463 0
115 9.562503460286166 20.00052187482699 0
116 9.830677405575013 20.00050846612972 0
117 10.09499491505798 20.00049525025425 0
118 10.35834694587912 20.00048208265271 0
119 10.62632134312531 20.00046868393284 0
120 10.89160541966221 20.00045541972902 0
121 11.15437964514228 20.00044228101774 0
122 11.42177067697551 20.00042891146615 0
123 11.68803836059011 20.00041559808197 0
124 11.95059642861271 20.00040247017857 0
125 12.21705530032516 20.00038914723498 0
126 12.48429054515717 20.00037578547274 0
127 12.74699349710659 20.00036265032514 0
128 13.01246559198918 20.0003493767204 0
129 13.28035452066339 20.00033598227397 0
130 13.54356699479485 20.00032282165026 0
131 13.80806709120855 20.00030959664544 0
132 14.07623203701579 20.00029618839815 0
133 14.34030340575345 20.00028298482971 0
134 14.6038619068805 20.00026980690466 0
135 14.87192257438849 20.00025640387128 0
136 15.13695964184173 20.00024315201791 0
137 15.39984655894953 20.00023000767205 0
138 15.66742125293792 20.00021662893735 0
139 15.93343851167327 20.00020332807442 0
140 16.19601607217737 20.00019019919639 0
141 16.46273020530862 20.00017686348973 0
142 16.72973549752559 20.00016351322513 0
143 16.99236961769073 20.00015038151912 0
144 17.25809052180016 20.00013709547391 0
145 17.52585176510844 20.00012370741175 0
146 17.78890050664174 20.00011055497467 0
147 18.05364830178545 20.00009731758491 0
148 18.32178020106344 20.00008391098995 0
149 18.58560954624364 20.00007071952269 0
150 18.84939641064485 20.00005753017947 0
151 19.11751983761432 20.00004412400812 0
152 19.38231012648334 20.00003088449368 0
153 19.64415738874822 20.00001779213056 0
154 19.85200846597508 20.0000073995767 0
155 19.8520084659753 19.9999926004233 0
156 19.64415738874888 19.99998220786944 0
157 19.38231012648432 19.99996911550632 0
158 19.1175198376157 19.99995587599188 0
159 18.84939641064653 19.99994246982053 0
160 18.58560954624556 19.99992928047731 0
161 18.32178020106591 19.99991608901005 0
162 18.05364830178827 19.99990268241509 0
163 17.78890050664474 19.99988944502533 0
164 17.52585176511206 19.99987629258825 0
165 17.25809052180441 19.99986290452609 0
166 16.99236961769503 19.99984961848088 0
167 16.72973549753032 19.99983648677487 0
168 16.46273020531411 19.99982313651027 0
169 16.19601607218278 19.99980980080361 0
170 15.93343851167902 19.99979667192558 0
171 15.66742125294456 19.99978337106265 0
172 15.39984655895621 19.99976999232795 0
173 15.13695964184849 19.99975684798209 0
174 14.87192257439616 19.99974359612872 0
175 14.60386190688835 19.99973019309535 0
176 14.3403034057611 19.99971701517029 0
177 14.07623203702452 19.99970381160185 0
178 13.80806709121771 19.99969040335456 0
179 13.54356699480366 19.99967717834974 0
180 13.28035452067315 19.99966401772603 0
181 13.01246559199969 19.9996506232796 0
182 12.74699349711664 19.99963734967486 0
183 12.48429054516786 19.99962421452726 0
184 12.217055300337 19.99961085276502 0
185 11.950596428624 19.99959752982143 0
186 11.68803836060169 19.99958440191803 0
187 11.42177067698847 19.99957108853385 0
188 11.15437964515482 19.99955771898226 0
189 10.89160541967468 19.99954458027098 0
190 10.62632134313922 19.99953131606716 0
191 10.35834694589297 19.99951791734729 0
192 10.09499491507136 19.99950474974575 0
193 9.830677405589892 19.99949153387028 0
194 9.562503460301377 19.99947812517301 0
195 9.298245107520772 19.99946491225538 0
196 9.034845475516878 19.99945174227377 0
197 8.766847581637577 19.99943834237908 0
198 8.501623795488877 19.99942508118977 0
199 8.238823970145804 19.99941194119851 0
200 7.971386746572104 19.99939856933733 0
201 7.705179619495784 19.99938525898098 0
202 7.442619228795245 19.99937213096144 0
203 7.176099353841662 19.99935880496769 0
204 6.908918939640547 19.99934544594698 0
205 6.646235635013944 19.99933231178175 0
206 6.380703307808966 19.99931903516539 0
207 6.112843567601248 19.99930564217838 0
208 5.849672906483933 19.99929248364532 0
209 5.58511348904007 19.99927925567445 0
210 5.316952186056072 19.9992658476093 0
211 5.052939505240207 19.99925264697526 0
212 4.789327488805226 19.99923946637444 0
213 4.521249795297912 19.99922606248976 0
214 4.256271845236157 19.99921281359226 0
215 3.993354691064358 19.99919966773455 0
216 3.725738683907544 19.99918628693419 0
217 3.45978235852278 19.99917298911793 0
218 3.197196257458312 19.99915985981287 0
219 2.93042095888967 19.99914652104794 0
220 2.663473945353164 19.99913317369727 0
221 2.400854009471292 19.99912004270047 0
222 2.135072325968302 19.9991067536163 0
223 1.867346506026365 19.9990933673253 0
224 1.604333997064295 19.99908021669985 0
225 1.339526334129321 19.9990669763167 0
226 1.071406846951888 19.99905357034235 0
227 0.8076356516699477 19.99904038178258 0
228 0.5437909162818926 19.99902718954581 0
229 0.2756563880082687 19.9990137828194 0
230 0 19.43320755351829 0
231 0 18.63819014825295 0
232 0 17.52023694804068 0
233 0 15.94889991741394 0
234 0 13.96929246264372 0
235 0 11.97367925370262 0
236 0 9.978066044761873 0
237 0 7.982452835810026 0
238 0 5.986839626858696 0
239 0 3.991226417904876 0
240 0 1.995613208951745 0
241 20.14799153400649 20 0
242 20.35584261112511 20 0
243 20.61768987337378 20 0
244 20.88248016223333 20 0
245 21.1506035892039 20 0
246 21.41439045362019 20 0
247 21.67821979879253 20 0
248 21.94635169806704 20 0
249 22.21109949322456 20 0
250 22.47414823475535 20 0
251 22.74190947805619 20 0
252 23.00763038217809 20 0
253 23.27026450234558 20 0
254 23.53726979455219 20 0
255 23.80398392769451 20 0
256 24.06656148820497 20 0
257 24.33257874693111 20 0
258 24.60015344092571 20 0
259 24.86304035804314 20 0
260 25.1280774254889 20 0
261 25.39613809299848 20 0
262 25.65969659413767 20 0
263 25.92376796286947 20 0
264 26.1919329086745 20 0
265 26.45643300509991 20 0
266 26.71964547922936 20 0
267 26.98753440789829 20 0
268 27.25300650279123 20 0
269 27.51570945474271 20 0
270 27.78294469956722 20 0
271 28.0494035712885 20 0
272 28.31196163931645 20 0
273 28.57822932292392 20 0
274 28.84562035476271 20 0
275 29.10839458025065 20 0
276 29.3736786567821 20 0
277 29.64165305402997 20 0
278 29.90500508486073 20 0
279 30.1693225943399 20 0
280 30.43749653962743 20 0
281 30.70175489241682 20 0
282 30.96515452442094 20 0
283 31.23315241829746 20 0
284 31.49837620445343 20 0
285 31.76117602979959 20 0
286 32.02861325336968 20 0
287 32.29482038045167 20 0
288 32.55738077115735 20 0
289 32.82390064610773 20 0
290 33.09108106031232 20 0
291 33.35376436494533 20 0
292 33.61929669214888 20 0
293 33.88715643235751 20 0
294 34.15032709348166 20 0
295 34.41488651092577 20 0
296 34.68304781390902 20 0
297 34.94706049473116 20 0
298 35.21067251116821 20 0
299 35.47875020467393 20 0
300 35.74372815474034 20 0
301 36.00664530891615 20 0
302 36.27426131607142 20 0
303 36.54021764145921 20 0
304 36.80280374252883 20 0
305 37.06957904109704 20 0
306 37.33652605463489 20 0
307 37.5991459905222 20 0
308 37.86492767402633 20 0
309 38.13265349396799 20 0
310 38.39566600293509 20 0
311 38.66047366587288 20 0
312 38.92859315304931 20 0
313 39.19236434833501 20 0
314 39.45620908372753 20 0
315 39.72434361200031 20 0
316 20.06852732159031 19.86595819712621 0
317 21.62293450791792 19.72736078509956 0
318 23.53760462099543 19.69473150377302 0
319 25.94757078229794 19.80969057399702 0
320 27.88152038472352 19.75109956457352 0
321 30.09089307628689 19.7713197635097 0
322 18.83459711912221 19.72653284240438 0
323 16.55139297757891 19.69438952022052 0
324 14.62780268604137 19.80942905705004 0
325 12.30590888150567 19.69418828918171 0
326 10.38230568871827 19.80921480644554 0
327 8.445668006329509 19.72736560680157 0
328 31.85390448078598 19.61290241919118 0
329 33.46514694604159 19.68154632684832 0
330 6.775766068114348 19.64092636294801 0
331 34.89007266140069 19.72792997193081 0
332 5.451524411541975 19.77145990577482 0
333 4.238309930114764 19.72672459283508 0
334 13.50619914735973 19.73890243033538 0
335 11.24473715462431 19.69584836831317 0
336 17.75170635395052 19.73905947292276 0
337 29.07153490069402 19.73898209685797 0
338 24.82602600457889 19.73908187804082 0
339 15.40179486837303 19.69530747821431 0
340 26.72162568460077 19.69568112208097 0
341 22.47613235976016 19.69554727191622 0
342 36.03055326278618 19.80961465013495 0
343 3.116340984031714 19.76911827014037 0
344 36.82623308450045 19.64252520598864 0
345 14.81120644680311 1.666236456643192 0
346 23.18393152869101 1.685443894193557 0
347 29.18582897346327 1.572834810591326 0
348 38.27167377663943 10.97634571332231 0
349 1.622840068290512 11.08928805905542 0
350 19.55087917093116 19.68890114715468 0
351 30.98899537518417 19.6534551858014 0
352 32.64976804858567 19.64119937266864 0
353 2.400510873995092 19.56119311875262 0
354 1.465185690081057 19.69387618224997 0
355 37.7325817570764 19.60298092828717 0
356 38.5065850564233 19.63550948906592 0
357 20.72601390729783 19.71681294006723 0
358 7.667047691662196 19.69223947955767 0
359 9.450054956260521 19.67205134925531 0
360 9.065277112226118 2.131947878794795 0
361 1.441077340306562 14.98908799507586 0
362 38.46228971782666 14.95975227863235 0
363 19.18383218750974 1.662161009254998 0
364 33.04569550274522 1.678341075085381 0
365 38.27167377664696 6.984947272107873 0
366 1.65264923155289 6.888310307041394 0
367 4.999999999994927 1.732050807564777 0
368 0.8283405705182518 18.07921354814681 0
369 38.96881150031788 18.26731413528402 0
370 16.15336846166388 19.72762229483167 0
371 16.29346717662018 19.11448751243027 0
372 11.9078892181748 19.72736461032632 0
373 12.20026501981603 19.29005974219228 0
374 23.13894744226187 19.77255218003437 0
375 22.94542091481793 19.29675406495874 0
376 27.384357978767 19.77249256996085 0
377 27.17499716786917 19.30018260825572 0
378 34.13205997774094 19.727357088328 0
379 33.70811183047543 19.43143668013376 0
380 6.095836023725651 19.72748121905805 0
381 5.476649931289695 19.30786482640531 0
382 0.991454530027323 19.74955266035676 0
383 39.16672889887397 19.68149370778556 0
384 5.037900063255316 19.72604834119853 0
385 30.60325139082035 19.7845622120056 0
386 30.2990885131307 19.30215177105644 0
387 26.32418295688719 19.77149375400155 0
388 26.06801889628191 19.28896235239874 0
389 26.78801261352243 18.13023475326515 0
390 22.07872559564581 19.77145739559924 0
391 21.93608677329864 19.18926734106659 0
392 22.52381890823067 18.14517734204985 0
393 15.00445253801187 19.77115243110735 0
394 14.77424613063896 19.26966780728012 0
395 10.83069824745 19.73395822573075 0
396 10.45832857199969 19.15728894783137 0
397 12.88061183621282 19.69422045241456 0
398 13.19774423973246 19.21104634262804 0
399 12.61672759993794 18.40373871536347 0
400 17.12613722937611 19.69437578137142 0
401 17.43000633589117 19.19065635848609 0
402 16.86190356110658 18.40417373998284 0
403 3.593672666484022 19.693628939116 0
404 3.721972246139321 19.1463894499781 0
405 36.41465124787501 19.77721585245635 0
406 36.16601257541249 19.29528701276876 0
407 24.20046217041344 19.69442621973462 0
408 24.47958998812626 19.20306040904888 0
409 28.44596277382104 19.69432307164471 0
410 28.72064327478704 19.21497005203124 0
411 29.42027688960755 19.76530275620768 0
412 8.809672662834933 19.76256675385922 0
413 8.823248824048701 19.12393198832367 0
414 25.1747926396796 19.76544642230675 0
415 35.25405203241569 19.76367651536605 0
416 35.32407082208962 19.36700296846978 0
417 35.54113384186665 18.39121935078021 0
418 13.85501417518596 19.76538568480058 0
419 18.15925243706913 19.69096787362496 0
420 18.45301415092935 19.31832960931066 0
421 36.92252835950645 1.687322535079946 0
422 20.90366607085062 18.31648242629007 0
423 21.91263354440654 16.69127539930201 0
424 20.0704055958943 16.56809397118801 0
425 21.09027819365992 14.93600418762607 0
426 19.10733909991507 14.85929754925504 0
427 20.16604331250058 13.17647789712451 0
428 18.16913938961803 13.10665096993243 0
429 22.16373900275052 13.25396467943856 0
430 21.23216778740991 11.48635553122459 0
431 23.23205635958246 11.56384825006475 0
432 22.29983471568966 9.794353063044053 0
433 24.29854618388403 9.871877879293782 0
434 20.29786864486354 9.718818136876971 0
435 25.23064348704603 11.64168774660045 0
436 26.29709442872096 9.949465571301019 0
437 27.22919824805509 11.71899258733082 0
438 28.29561445175869 10.02696224539676 0
439 29.2277082314902 11.79648731124451 0
440 30.29411256791343 10.10449930001161 0
441 31.22620710224095 11.87402039208349 0
442 30.15980579922658 13.56599836970755 0
443 25.36500496160337 8.17989556208062 0
444 32.2926087370607 10.18204127384467 0
445 31.3605137520054 8.412521664039545 0
446 21.36732887336202 8.025175282381461 0
447 19.3663197262169 7.949061479095517 0
448 32.15830249062901 13.64353866462205 0
449 31.09339091389235 15.33473153489997 0
450 33.35901000631829 8.49006335885425 0
451 26.15727291478175 13.48666886359594 0
452 32.38528974843943 6.742470046959789 0
453 30.42148117037511 6.646656605843626 0
454 20.43522934354094 6.255682822963193 0
455 18.4367366402011 6.178182121553729 0
456 17.37100700381572 7.869836680159104 0
457 16.43877052120159 6.100393173178294 0
458 15.37115411883453 7.795817944102916 0
459 14.44013549115933 6.023423855577732 0
460 13.37374497287174 7.715511476526062 0
461 14.30375192105287 9.492652647514475 0
462 12.30720108999733 9.408331084780508 0
463 13.2394613928786 11.17906125066213 0
464 11.24115025796407 11.09953500754049 0
465 10.30914597755096 9.329329347127496 0
466 9.242757354261382 11.02144564077939 0
467 8.310644687503482 9.25184686923992 0
468 10.17488400635411 12.7909661040771 0
469 8.176403111586552 12.71336942667033 0
470 9.108540835402659 14.48282789594334 0
471 9.377015246402557 7.559831723733508 0
472 7.378685955389192 7.482241398296408 0
473 7.106853323704621 14.40994569241793 0
474 6.309178893574849 9.174496330573417 0
475 11.11293234956322 14.5752603424839 0
476 17.10811040065025 14.80130631807898 0
477 8.044375845340166 16.11700584208924 0
478 6.095918457759515 16.07023614333792 0
479 22.43415447340283 6.332957789001559 0
480 12.44183789958197 5.945439594561662 0
481 6.170074159653965 12.64435018294627 0
482 34.29110506345412 10.25958273143684 0
483 29.09480493276868 15.26473976071011 0
484 8.444913570240901 5.79031395051917 0
485 6.446589121725588 5.712720266778575 0
486 34.27421998125436 6.821969967073446 0
487 33.09064594578039 15.41292681833078 0
488 31.95918394801734 17.40497476305684 0
489 34.15684027443623 13.72105806735337 0
490 23.8293925440199 17.06568201110385 0
491 31.46942414779496 4.964401789520553 0
492 1.694223564395069 2.994597126513337 0
493 29.48893816788494 4.927780231796481 0
494 16.17088832899775 13.04058322572353 0
495 15.11262435553951 14.73781996924387 0
496 17.23132077111822 11.34477960053312 0
497 28.42752496910864 6.575112731122841 0
498 27.49417344232507 4.858038596228745 0
499 21.50066630302065 4.602985252760948 0
500 23.49926662709853 4.678507149168816 0
501 35.08889399557428 15.49059910045571 0
502 17.50524450233304 4.408336964512261 0
503 0.7800165520665494 19.23793212564822 0
504 39.41737527477267 19.12780523925903 0
505 13.50427749125142 4.354624631913055 0
506 11.5047225258913 4.305145511141262 0
507 0.3791980938369824 19.73979344201584 0
508 39.62744281156241 19.70724692911056 0
509 7.512755532271716 4.020826688415626 0
510 36.35932775818864 13.87917033372934 0
511 7.126273834249803 17.85661691367669 0
512 12.65483111190779 2.680646934859416 0
513 5.654663521536943 3.838322015512492 0
514 4.577070464169698 5.702595983642614 0
515 37.20038490044912 17.98735803328127 0
516 23.06765657053275 15.08136761880322 0
517 25.09797917041687 15.15098379120244 0
518 30.32843554930273 3.291937819822635 0
519 5.325972398487761 17.92119212259455 0
520 4.313536747324354 16.05366605792319 0
521 16.11732089351007 16.52888876008052 0
522 14.07037106220093 16.74123615752264 0
523 19.3641452441726 18.02380597900935 0
524 18.10353425070869 16.75491009401971 0
525 14.17270540848802 12.97105115960465 0
526 5.115720534749259 14.34687752425839 0
527 4.339676272224127 12.4467847810292 0
528 5.250160123357698 10.86024376167914 0
529 38.33392426814057 12.95559225286247 0
530 1.51917702025071 13.03082530980181 0
531 19.23083444377592 11.41340718632794 0
532 18.29899428906421 9.646430187822626 0
533 24.15990595330751 13.35510093245269 0
534 27.14148533193984 15.18052553871232 0
535 24.43259149756365 6.4166576966208 0
536 25.49583156996297 4.801554311786035 0
537 13.11646058974294 14.71041807964854 0
538 12.05672408826211 16.36880972943419 0
539 10.04957373871067 16.26922924686308 0
540 8.938051800795694 17.84477500139702 0
541 10.78293672009946 18.1624722602318 0
542 23.36624345091759 8.103486212070379 0
543 26.43055340128272 6.501606120453284 0
544 26.34901985001914 3.254224737099026 0
545 19.50374240977264 4.485838987954001 0
546 27.36352086899857 8.257438043423614 0
547 28.16837924304369 13.50223540521687 0
548 28.08863856111536 16.99015675055198 0
549 15.50458936614693 4.386053154645992 0
550 35.20530544518579 12.02044852933453 0
551 9.511253325985493 4.098328743363637 0
552 6.999999999989718 2.060045628122101 0
553 29.36046129669331 8.337198431639665 0
554 33.22172818550113 11.95011494311249 0
555 36.45441112707559 10.16261576563315 0
556 35.25867572142261 8.505773484736864 0
557 34.99999999999348 1.732050807570828 0
558 35.98708805991191 3.429060843616042 0
559 38.15733315474826 3.251596216347587 0
560 36.99999999999275 5.196152422709599 0
561 21.24517717655084 1.654351471885683 0
562 34.09175357866135 3.406743533829931 0
563 34.0224927961673 17.18257678408782 0
564 25.18080274605821 1.610109546512512 0
565 11.37538811013611 7.637712142721695 0
566 10.44252177970639 5.889461944340155 0
567 12.17626566749849 12.8877153240028 0
568 7.244280538549821 10.94382612346877 0
569 4.278201879270019 9.081076052296567 0
570 17.18295131504907 1.628012817217584 0
571 5.381031840623212 7.404291465215731 0
572 38.31185297855015 9.074114719187232 0
573 1.632924277806788 4.95126674823412 0
574 2.079182837443443 9.012336944998635 0
575 15.23357959906014 11.2787447301266 0
576 3.520746381969132 3.86896523743698 0
577 16.29792175448738 9.579736280381056 0
578 30.07164525216323 16.93074079204248 0
579 3.601367850592224 17.85423972029639 0
580 19.0952554707941 19.16697756530877 0
581 19.88208559102489 19.02644285579409 0
582 15.53238672375947 18.23557201747853 0
583 25.16070361472462 18.2972910631494 0
584 13.97796153589738 18.52976313584725 0
585 9.659828381217226 19.15914075879623 0
586 2.863184211454803 18.76374465773842 0
587 1.738607549150356 18.99676581927416 0
588 33.10072793075041 19.47279404414731 0
589 32.30928025807652 19.07237642343736 0
590 31.39317334487006 19.0171346747988 0
591 21.13246943682621 19.41919352083071 0
592 2.946048644151489 1.675959296711458 0
593 34.41652368452971 19.23549580094285 0
594 4.551704827098166 19.1483517082405 0
595 6.379740026275311 19.23563548398569 0
596 7.181811330550812 19.3147654718692 0
597 7.971960389714888 19.2365380611868 0
598 11.21192873718343 1.495032734702326 0
599 36.11298811170808 6.816494298552753 0
600 3.157560134194542 14.13875629264923 0
601 35.11826910405534 5.1384239832001 0
602 3.52946543023968 7.413615143262465 0
603 23.81238122212119 18.55302304323407 0
604 20.32780469097062 19.79218016488502 0
605 20.43954590128775 19.44259965556909 0
606 31.09930155261568 1.603108329058933 0
607 3.471123252751002 10.6535501727627 0
608 38.60081989070216 16.81968272326632 0
609 36.97343322561936 16.23297755374188 0
610 1.109766757740899 16.75597443569563 0
611 33.26162920469703 5.103399249764652 0
612 28.30773266382922 3.213993226481104 0
613 32.21603992263616 3.341321966180347 0
614 30.68562849064097 18.17530237413462 0
615 29.28454183580432 18.31276161779108 0
616 37.24662480014111 19.3067665900587 0
617 38.08904289319632 19.1919987363189 0
618 26.19302337218123 16.75415285520566 0
619 27.17056403888836 1.608527053447328 0
620 32.93351763307606 18.03977835179436 0
621 36.92073586965821 11.99179474887655 0
622 24.46252715639081 3.281087235942673 0
623 38.6858013862776 5.082238402835865 0
624 19.92152953506202 19.84807663510488 0
625 19.99120891578545 19.64552866745376 0
626 19.74809019963136 19.8545420165423 0
627 22.51410084521069 3.277816201060315 0
628 18.17564547595829 18.59656977690932 0
629 20.50234574765674 3.228633126768856 0
630 38.82384617217417 19.27907225134372 0
631 18.51327664901696 3.202070743138946 0
632 38.53517015706663 1.463681172627409 0
633 1.426631300883608 1.427107237471285 0
634 2.929926488923637 5.977661773649442 0
635 2.575850470496584 16.27746131855447 0
636 28.03959007298524 18.54302395598599 0
637 16.34472387375605 3.076516134101491 0
638 19.1961123449895 19.71646730927321 0
639 31.42935859532047 19.73032786263818 0
640 36.88192034308067 8.308789108043575 0
641 32.24784375631094 19.73535320137821 0
642 2.883759815888782 19.56695937466432 0
643 37.1893598005904 19.74400643790545 0
644 28.18070698481312 19.30983795402079 0
645 23.93536136280782 19.31017336909375 0
646 3.273349727544418 19.41098402961378 0
647 33.40421882334941 18.83793800460798 0
648 16.86114032716561 19.31034375846263 0
649 12.63615184226741 19.34396319603113 0
650 10.97437851991084 19.21284289599346 0
651 1.921344589044234 19.65000704824367 0
652 37.99879058399701 19.77102539797312 0
653 28.18068260530251 19.77047817356163 0
654 13.80058628354826 19.34981545813787 0
655 23.90879471402323 19.73986621852028 0
656 3.328500775514673 19.76981594125625 0
657 17.97327762714422 19.30997903939277 0
658 37.46783602257851 19.77074039347989 0
659 9.693182356222508 19.72026233007821 0
660 30.32001042284106 19.77160674931435 0
661 16.8521551298692 19.73975903306206 0
662 33.19364223105192 19.78511103386903 0
663 25.20617474782654 19.34421628321821 0
664 12.61079132045408 19.74632670036591 0
665 34.50731812970122 19.73815657224034 0
666 29.42823574724482 19.3509235755397 0
667 38.81724538927872 19.71921508963904 0
668 4.627698420914277 19.71991803422766 0
669 35.6219437621375 16.90059926607608 0
670 38.2641597484516 19.771188493716 0
671 14.56392565797306 3.23281546243263 0
672 15.65928411049282 19.30234255641987 0
673 13.17547506719557 19.72869677327672 0
674 29.79752539419344 19.69828297771892 0
675 33.75322656225338 19.77073390140029 0
676 9.179315901233171 19.61943458412726 0
677 11.61169288199999 19.18049307242721 0
678 17.41835844122685 19.72476616197892 0
679 25.56183254497444 19.72140583457095 0
680 21.26738797265737 19.78337129109018 0
681 21.0243220481294 19.7772273540497 0
682 3.854609643542001 19.71302578731959 0
683 18.47085069088643 19.74713513896548 0
684 0.700419148776539 19.74506915986984 0
685 24.48776207019509 19.72731370136486 0
686 14.23500650679906 19.71962767183353 0
687 10.01988621980316 19.64081718779456 0
688 8.058977360884901 19.73099073161637 0
689 28.73239812539775 19.72965504410679 0
690 5.704320296586659 19.7659230258195 0
691 7.042520586172047 19.77056350678892 0
692 35.63927761285983 19.73814993336251 0
693 32.95749085320994 19.77121479834952 0
694 27.10430434838529 19.75367126005951 0
695 6.455656212187646 19.72053888258778 0
696 22.86200811541485 19.75297070338186 0
697 15.76306144103066 19.74497047449082 0
698 7.309370717667099 19.77083849494067 0
699 11.57482565847786 19.72057230830372 0
700 2.822075349542178 12.27184092305967 0
701 12.99999999997267 1.076783094167282 0
702 10.67296336413997 3.010105163749516 0
703 2.119519568325519 17.78789991661765 0
704 20.06518346841062 20.12122842234133 0
705 21.43319977909326 20.27306750759915 0
706 23.80241900471603 20.30464950713513 0
707 25.69782357939444 20.26067801009441 0
708 27.91617413542786 20.22907105442757 0
709 29.98134909044734 20.26043515672021 0
710 18.64485753861101 20.27362845175796 0
711 16.66348507324783 20.26795104465211 0
712 14.37802107176098 20.26100490426373 0
713 12.44483497280784 20.2835691260363 0
714 10.11345052083335 20.27299419808283 0
715 8.255826019805694 20.27248632409214 0
716 31.8979064484111 20.3875408809561 0
717 33.41179229682989 20.2730351049257 0
718 6.681229104336912 20.30801276622919 0
719 34.70035963062535 20.27180044874446 0
720 5.495152912814719 20.30414832566981 0
721 4.048477762474999 20.27307350016484 0
722 13.25641433045698 20.19065287790247 0
723 11.42086400596498 20.30581310603251 0
724 17.5019244017198 20.19046985534996 0
725 28.82177460155011 20.19045962327555 0
726 24.57625569631545 20.19039810644658 0
727 15.66634552295537 20.3054961122818 0
728 26.89804863967893 20.30484592816478 0
729 22.65257210846124 20.30496677846033 0
730 35.78078096447501 20.26089711907858 0
731 3.218913390339697 20.42050413771596 0
732 36.88367051783167 20.2300375463353 0
733 14.8112064468212 38.33376354335777 0
734 23.18393152870876 38.31455610580879 0
735 29.18582897347446 38.42716518940841 0
736 38.2716737766415 29.02365428666116 0
737 1.624482335592344 28.91088961348751 0
738 19.50643659241228 20.28938120115178 0
739 31.0463105008924 20.229694107145 0
740 32.69383200840134 20.35926013839587 0
741 2.22707066409317 20.28511513980162 0
742 1.418165119245012 20.25387205077489 0
743 37.63817616034006 20.3408162735573 0
744 38.53751549978259 20.30456762705663 0
745 20.76515543557844 20.29294463998001 0
746 7.477196302472872 20.30773691439982 0
747 9.355414436647317 20.27365183045514 0
748 9.065277112233339 37.86805212120674 0
749 1.44223245612119 25.01091200494852 0
750 38.46228971783002 25.04024772135662 0
751 33.18536715297296 38.36134791908589 0
752 19.18383218753095 38.33783899074761 0
753 38.09690956186952 33.06607264860202 0
754 1.652649231547211 33.11168969298932 0
755 5.00000000000005 38.26794919243111 0
756 1.004999055493121 21.80319287954404 0
757 38.97991741075012 21.8340724905368 0
758 16.06473866186723 20.2275956014957 0
759 16.27458245347979 20.70395651731918 0
760 11.81932876369926 20.2277909910064 0
761 12.01381054168273 20.69133812818799 0
762 23.0506037896529 20.27195943133692 0
763 22.91059859782717 20.8658186612146 0
764 27.2961060541199 20.27189160891237 0
765 27.15100935542061 20.88072658407812 0
766 33.93157648568179 20.27867749966222 0
767 33.7533323982212 20.68488981617097 0
768 5.912330665797413 20.28339409148519 0
769 5.717006857414779 20.68316942029109 0
770 0.90386582308098 20.33416045667856 0
771 39.00899242233979 20.2493951170973 0
772 4.806495876330962 20.27248509705633 0
773 30.46582906185778 20.26605569295285 0
774 30.2079716856846 20.88434660779088 0
775 26.32345056146367 20.30532586386376 0
776 26.00671080177252 20.78844812579321 0
777 26.58949818161909 21.59360586463871 0
778 22.0779700623315 20.30533433114975 0
779 21.75211391508011 20.77353624085236 0
780 22.34355889873519 21.59424790646118 0
781 15.00364999894563 20.30560716288025 0
782 14.72438599613661 20.81280583017229 0
783 10.75813469239586 20.30585274679088 0
784 10.52656858898235 20.86236798645241 0
785 12.87974097987308 20.22906251762355 0
786 13.12967429757058 20.70740060759707 0
787 12.53407895937065 22.02525799521178 0
788 17.12524150896724 20.22892817511597 0
789 17.36649635176142 20.69600352101343 0
790 16.89862761970723 21.96223896393909 0
791 3.584989428679998 20.23033736532476 0
792 3.647669607716445 20.89985108210534 0
793 36.40634261103467 20.30555074380173 0
794 36.17542699449687 20.7955536428136 0
795 24.19957011756806 20.22888827088387 0
796 24.4296851705275 20.71605236038637 0
797 28.44509548112014 20.22898826754583 0
798 28.65487002168909 20.69607214272544 0
799 29.60209793648872 20.23391975249275 0
800 8.931968156161172 20.3130166003892 0
801 8.786520480038043 20.8602513214116 0
802 25.34897505454737 20.23402831205227 0
803 35.37326134374305 20.30897804853026 0
804 35.11635353420132 20.65286915564685 0
805 35.34667680903784 21.55745300473975 0
806 14.02916750713175 20.23447151355385 0
807 18.27891720229382 20.23677627488678 0
808 18.30503950910149 20.65671900959386 0
809 37.0165579864413 38.31643478155019 0
810 20.85813696238625 21.64629617751381 0
811 21.87500202474658 23.25909190941714 0
812 20.05654549120687 23.41743034756581 0
813 21.09779660314659 25.0541401547544 0
814 19.10628215071496 25.13664722760069 0
815 20.16688148974393 26.82138796811395 0
816 18.16886419482082 26.89250181578237 0
817 22.16513176720555 26.74403702183127 0
818 21.23230087822189 28.51314007522588 0
819 23.23183585321573 28.43573840305716 0
820 22.29982014643055 30.20549398021802 0
821 24.29850700461307 30.12802773677024 0
822 20.30009868488609 30.28269580329744 0
823 25.23060020610645 28.35822763159725 0
824 26.297120065575 30.05058403657601 0
825 27.22919530737422 28.28100157701501 0
826 28.29561294822222 29.973031892965 0
827 29.22770749078737 28.20351073920683 0
828 30.29411256791347 29.89550069998852 0
829 31.22620697879054 28.12597928299189 0
830 30.15980565520114 26.43400125121367 0
831 25.36499549228281 31.82009962489 0
832 32.29260871648566 29.8179586720014 0
833 31.36051374881574 31.58747832709348 0
834 21.36769811848928 31.97505154819129 0
835 19.36920195964339 32.05266780255224 0
836 32.15830244604982 26.35646121804421 0
837 31.0933908824584 24.66526838236473 0
838 33.35901000235748 31.50993663064244 0
839 26.15726521117839 26.51331606016131 0
840 32.42691495920728 33.27945604735797 0
841 30.42841870521096 33.35699774189013 0
842 20.43582081076737 33.74465145523976 0
843 18.43731559030994 33.82216180508804 0
844 17.37095064122366 32.13026626873463 0
845 16.43885761912107 33.8996813060776 0
846 15.37249661046506 32.20768538262485 0
847 14.44037712827062 33.97716851446289 0
848 13.37400899432875 32.28517113960194 0
849 14.30535704231011 30.51151876499765 0
850 12.3075126137831 30.59247791999277 0
851 13.23945279645417 28.82014966787744 0
852 11.24120074585771 28.90046831301157 0
853 10.30914597755105 30.67067065287238 0
854 9.242765768910424 28.97855491264582 0
855 8.31064608994506 30.74815322299747 0
856 10.17489382344467 27.20903454158569 0
857 8.176406150209932 27.28663077317754 0
858 9.108540835402858 25.51717210405651 0
859 9.377015480142868 32.44016829163927 0
860 7.37868622808621 32.51775861963849 0
861 7.106853830141908 25.59005434088979 0
862 6.309179172764641 30.8255036877885 0
863 11.11293504092228 25.42473037338819 0
864 17.1078883766507 25.19787660901614 0
865 8.044376044659215 23.88299320517212 0
866 6.095918575386218 23.92976370342274 0
867 22.43431459212847 33.66713572912774 0
868 12.4418805421808 34.0546693095117 0
869 6.170074750497325 27.35564985591273 0
870 34.29110505936487 29.74041725778714 0
871 29.09480490352557 24.73526016232091 0
872 8.44491365464714 34.20968605503201 0
873 6.446589181242812 34.28727973713562 0
874 34.413348408883 33.20951718168534 0
875 33.09064593311192 24.58707314832467 0
876 31.90551471367598 22.81543643351317 0
877 34.15684026489505 26.27894190753375 0
878 23.77731633138954 22.89632691276628 0
879 31.49336398097135 35.01145159697951 0
880 1.694223564387153 37.00540287350309 0
881 29.49408439588693 35.06880439057653 0
882 16.17080545919833 26.95913939307815 0
883 15.11257329943189 25.26199313782973 0
884 17.23480874919179 28.66013022081147 0
885 28.42953892982112 33.42492709738688 0
886 27.49536680711081 35.14139881225237 0
887 21.50069891035238 35.39703330705544 0
888 23.49927498846092 35.32149771329978 0
889 35.08889399557446 24.50940089954454 0
890 17.50524450233303 35.59166303548773 0
891 0.6038674255294305 20.85576266775067 0
892 39.26504499982501 20.79671095975564 0
893 13.50432487120312 35.64549224710639 0
894 11.50473752964974 35.69489211937455 0
895 7.512755532271714 35.9791733115842 0
896 36.36044952945193 26.12040396720349 0
897 7.12627357552713 22.14338287100223 0
898 12.65483747759804 37.3193688314202 0
899 5.654663531457726 36.16167798514091 0
900 4.577070475737884 34.2974040171226 0
901 37.01150843466657 21.80836307464157 0
902 23.06078611489089 24.91017339108111 0
903 25.08815344177097 24.84127201838284 0
904 30.3796686491466 36.691145128785 0
905 5.338472702501821 21.90314876553823 0
906 4.255697708664173 23.91858430634282 0
907 16.05446169169297 23.49652737465339 0
908 14.04957743578845 23.32364597825194 0
909 19.34609133218208 21.96679253151741 0
910 18.10006150110284 23.2640482394061 0
911 14.17269916260188 27.02889329673996 0
912 5.172307281873237 25.67300050720972 0
913 4.34959464671108 27.55670590320292 0
914 5.229994973283278 29.12767328212518 0
915 38.33438334540212 27.04354883092363 0
916 1.52013040226141 26.96938197481664 0
917 19.23435247823645 28.58852163668242 0
918 24.15562876572799 26.63379408768515 0
919 27.13984642169118 24.81818123734995 0
920 24.43261799935823 33.58335789797395 0
921 25.4960362746201 35.19835533247216 0
922 13.11298670964641 25.3003496397775 0
923 11.97406170632028 23.68610396914872 0
924 10.04396411390966 23.78020621856682 0
925 8.932002299376144 22.16002691298602 0
926 10.73308009016207 22.20079833772884 0
927 23.36632555888373 31.89652775286186 0
928 26.43084498824099 33.49834266039829 0
929 26.34925286160031 36.74566643835874 0
930 19.50374240977268 35.51416101204601 0
931 27.36343623639137 31.74057502150602 0
932 28.16810416495964 26.49754517121128 0
933 28.04399320601189 23.03413681148769 0
934 15.50460568378293 35.6139808471729 0
935 35.20576452017472 27.97869254847944 0
936 16.3033922524675 30.43202164065089 0
937 9.511253325985502 35.90167125663622 0
938 7.00000000000004 37.93995437188406 0
939 33.22180466429344 28.04974181447297 0
940 36.45616768167103 29.84687098771452 0
941 35.35750628047763 31.43239500963612 0
942 29.36193885606248 31.66308513013834 0
943 33.99078366109063 22.8850415587379 0
944 33.48960711464138 34.92892307205584 0
945 35.35398269370476 34.83321957187381 0
946 34.33186828684188 36.5999144385376 0
947 11.37549118039978 32.36255461400282 0
948 10.44254861883431 34.11060694103276 0
949 12.17569471315452 27.11393763873005 0
950 25.18084158133568 38.38987231606439 0
951 17.18295131506729 38.37198718278512 0
952 21.24517717656708 38.34564852811702 0
953 7.239844484268443 29.05369428910787 0
954 4.274841067454972 30.91691012474136 0
955 18.30242748330701 30.35873343109537 0
956 5.38103184062325 32.59570853478412 0
957 38.28904592295336 35.17075163423338 0
958 38.28471905501495 30.94796872724523 0
959 1.632924277801184 35.04873325178684 0
960 2.078937331083288 30.9874007478193 0
961 15.23510036362913 28.72637682993871 0
962 3.520746381961097 36.13103476256771 0
963 30.05525947714291 23.11004330777509 0
964 3.642229107285767 22.17860809810223 0
965 18.96877833027567 20.8481154759704 0
966 19.85316453553096 20.94008712070109 0
967 15.31609811151639 21.82083628915025 0
968 25.18494209967941 21.65702944473845 0
969 13.99358394617245 21.56200949599515 0
970 9.565705955760063 21.37801841234142 0
971 2.849300338822408 21.1004400942963 0
972 1.974214714548298 20.89996188858519 0
973 36.16753928316557 33.12891874247612 0
974 33.08883894605204 20.76743193422494 0
975 32.38291457156154 20.68733821994696 0
976 31.49687621518407 20.93735792606074 0
977 21.07377076307178 20.66825269276435 0
978 2.946048644149267 38.32404070329325 0
979 38.36154253036334 37.03890240111696 0
980 34.41652368452971 20.76450419905719 0
981 4.500275617634248 20.80485195103928 0
982 6.331537777002946 20.87975650067896 0
983 7.121856968813914 20.81721223976043 0
984 7.952590675630942 20.86884880385001 0
985 11.21192979814477 38.50496989301102 0
986 3.159516918439699 25.86079976444952 0
987 36.46470326635078 36.41879055259303 0
988 3.529465430230778 32.58638485674305 0
989 35.16641611543449 38.28274794862778 0
990 23.6748985859221 21.4024269107562 0
991 20.24922130862019 20.20242787200618 0
992 20.43954590128773 20.5574003444309 0
993 32.31331253076236 36.68818961747903 0
994 20.48676624224946 20.20340147164265 0
995 31.12668777456625 38.41132156826085 0
996 3.471123252757715 29.34644982724071 0
997 38.57159804948648 23.16326122775992 0
998 36.9758727336722 23.76757841869732 0
999 1.207014052862163 23.2889437929808 0
1000 28.31736694786986 36.78250613267154 0
1001 30.67662358896882 21.74587277652278 0
1002 29.50822466654471 21.58546043109867 0
1003 37.33088328433007 20.79846143584351 0
1004 38.1088337676702 20.87339060416654 0
1005 26.06288973290956 23.17822491485108 0
1006 27.17221506071339 38.39086834608384 0
1007 32.8049193428283 21.63662355026991 0
1008 36.92568777066826 28.00263412419645 0
1009 24.46256839048074 36.71889469813865 0
1010 19.84463066836466 20.1238619681371 0
1011 19.99303041243774 20.37239782146139 0
1012 22.51410441155554 36.72218403132852 0
1013 18.16418244068845 21.56565295690671 0
1014 20.50234794479699 36.77136801464749 0
1015 1.26377741499227 20.65818602627439 0
1016 18.51327674434113 36.79792930638639 0
1017 38.57173043046913 38.57161890157193 0
1018 1.426631300877533 38.57289276253872 0
1019 2.929926488911639 34.02233822636418 0
1020 36.87256837243974 31.6844452231348 0
1021 2.608393961621336 23.83416720048444 0
1022 27.93275297454407 21.41254784226252 0
1023 16.34472660925548 36.92348954112364 0
1024 31.28975299965045 20.34743569236772 0
1025 32.16171681691048 20.23126248279751 0
1026 2.838856814757987 20.35055950711716 0
1027 37.1550402706511 20.34317686313396 0
1028 33.02188899154066 20.2799454355093 0
1029 36.8049118292864 20.64435625568311 0
1030 9.293689464941949 20.71774666809806 0
1031 9.758571816573616 20.6225468648112 0
1032 11.16109531397783 20.66230531998124 0
1033 1.987911180550527 20.2833203243427 0
1034 38.05642131915743 20.30375490095609 0
1035 15.34504330257223 20.69424985075799 0
1036 22.34657290773752 20.67878189417982 0
1037 5.173726872142306 20.69949244618694 0
1038 26.59279279701993 20.68360737301109 0
1039 29.60121469640161 20.6574542361624 0
1040 30.85954553723673 20.66276703676055 0
1041 33.9185816571825 21.48107959680077 0
1042 25.27728259961453 20.64742061609103 0
1043 14.05108506925698 20.64802304950793 0
1044 21.06104194583614 20.2468529680687 0
1045 36.67151069199391 20.22935048321208 0
1046 2.492295081173719 20.43963723556709 0
1047 9.724123527983092 20.23404464686118 0
1048 32.42610057580449 20.22949381356786 0
1049 35.61097227406308 20.68318560743066 0
1050 26.02873716283492 20.27089039995028 0
1051 11.07721581542863 20.25497377471028 0
1052 21.77757105067289 20.27038761592025 0
1053 19.01739774191162 20.28224535661354 0
1054 1.199348307679537 20.24961959741376 0
1055 15.3103690050529 20.261165257122 0
1056 35.65399028265477 23.00068793380747 0
1057 14.71636830962244 20.27598882161844 0
1058 1.685958155404062 20.34952778432534 0
1059 22.35247256130203 20.25781660075798 0
1060 27.67958260628527 20.66825298061052 0
1061 31.58881757949973 20.33446689987692 0
1062 10.4765644182432 20.28843313958234 0
1063 14.56394021773215 36.76721900203619 0
1064 23.40329041737383 20.68508617897031 0
1065 26.59807409649836 20.25875583300792 0
1066 6.283728884504477 20.29450773620992 0
1067 30.80771890336494 20.23170336737168 0
1068 35.0764391289243 20.2332645318535 0
1069 36.12869143899882 20.27240030113878 0
1070 39.31916448143228 20.28421458271344 0
1071 39.64986910900386 20.32368638557173 0
1072 5.169053470513203 20.2555214748657 0
1073 13.65567578353598 20.2634461989297 0
1074 34.32273468104886 20.26299642949277 0
1075 17.8935728856072 20.27718329304642 0
1076 27.63810339002859 20.23384312879009 0
1077 7.073060133815258 20.28685153389495 0
1078 4.426554179392032 20.27039433443569 0
1079 24.93721938408948 20.29798323249604 0
1080 8.648557206619815 20.28937816446482 0
1081 29.20720456876211 20.27688221450291 0
1082 23.41276950172811 20.25233902348847 0
1083 16.33231049321617 20.23997404523062 0
1084 7.872435872788711 20.29005764280474 0
1085 12.08912520142554 20.24069797252885 0
1086 2.82496951115245 27.72884541663946 0
1087 13.00000000000006 38.92321690582917 0
1088 36.8744361456088 34.52355062995567 0
1089 10.6729656529581 36.98990055303844 0
1090 2.214358538438848 22.18421899233217 0
1091 11.43985592985805 21.35275450090739 0
$EndNodes
$Elements
2180
1 1 2 1 1 1 9
2 1 2 1 1 9 10
3 1 2 1 1 10 11
4 1 2 1 1 11 12
5 1 2 1 1 12 13
6 1 2 1 1 13 14
7 1 2 1 1 14 15
8 1 2 1 1 15 16
9 1 2 1 1 16 17
10 1 2 1 1 17 18
11 1 2 1 1 18 19
12 1 2 1 1 19 20
13 1 2 1 1 20 21
14 1 2 1 1 21 22
15 1 2 1 1 22 23
16 1 2 1 1 23 24
17 1 2 1 1 24 25
18 1 2 1 1 25 26
19 1 2 1 1 26 27
20 1 2 1 1 27 2
21 1 2 2 2 2 28
22 1 2 2 2 28 29
23 1 2 2 2 29 30
24 1 2 2 2 30 31
25 1 2 2 2 31 32
26 1 2 2 2 32 33
27 1 2 2 2 33 34
28 1 2 2 2 34 35
29 1 2 2 2 35 36
30 1 2 2 2 36 37
31 1 2 2 2 37 38
32 1 2 2 2 38 8
33 1 2 2 3 8 39
34 1 2 2 3 39 40
35 1 2 2 3 40 41
36 1 2 2 3 41 42
37 1 2 2 3 42 43
38 1 2 2 3 43 44
39 1 2 2 3 44 45
40 1 2 2 3 45 46
41 1 2 2 3 46 47
42 1 2 2 3 47 48
43 1 2 2 3 48 49
44 1 2 2 3 49 3
45 1 2 3 4 3 50
46 1 2 3 4 50 51
47 1 2 3 4 51 52
48 1 2 3 4 52 53
49 1 2 3 4 53 54
50 1 2 3 4 54 55
51 1 2 3 4 55 56
52 1 2 3 4 56 57
53 1 2 3 4 57 58
54 1 2 3 4 58 59
55 1 2 3 4 59 60
56 1 2 3 4 60 61
57 1 2 3 4 61 62
58 1 2 3 4 62 63
59 1 2 3 4 63 64
60 1 2 3 4 64 65
61 1 2 3 4 65 66
62 1 2 3 4 66 67
63 1 2 3 4 67 68
64 1 2 3 4 68 4
65 1 2 4 5 4 69
66 1 2 4 5 69 70
67 1 2 4 5 70 71
68 1 2 4 5 71 72
69 1 2 4 5 72 73
70 1 2 4 5 73 74
71 1 2 4 5 74 75
72 1 2 4 5 75 76
73 1 2 4 5 76 77
74 1 2 4 5 77 78
75 1 2 4 5 78 79
76 1 2 4 5 79 5
77 1 2 5 6 5 80
78 1 2 5 6 80 81
79 1 2 5 6 81 82
80 1 2 5 6 82 83
81 1 2 5 6 83 84
82 1 2 5 6 84 85
83 1 2 5 6 85 86
84 1 2 5 6 86 87
85 1 2 5 6 87 88
86 1 2 5 6 88 89
87 1 2 5 6 89 90
88 1 2 5 6 90 91
89 1 2 5 6 91 92
90 1 2 5 6 92 93
91 1 2 5 6 93 94
92 1 2 5 6 94 95
93 1 2 5 6 95 96
94 1 2 5 6 96 97
95 1 2 5 6 97 98
96 1 2 5 6 98 99
97 1 2 5 6 99 100
98 1 2 5 6 100 101
99 1 2 5 6 101 102
100 1 2 5 6 102 103
101 1 2 5 6 103 104
102 1 2 5 6 104 105
103 1 2 5 6 105 106
104 1 2 5 6 106 107
105 1 2 5 6 107 108
106 1 2 5 6 108 109
107 1 2 5 6 109 110
108 1 2 5 6 110 111
109 1 2 5 6 111 112
110 1 2 5 6 112 113
111 1 2 5 6 113 114
112 1 2 5 6 114 115
113 1 2 5 6 115 116
114 1 2 5 6 116 117
115 1 2 5 6 117 118
116 1 2 5 6 118 119
117 1 2 5 6 119 120
118 1 2 5 6 120 121
119 1 2 5 6 121 122
120 1 2 5 6 122 123
121 1 2 5 6 123 124
122 1 2 5 6 124 125
123 1 2 5 6 125 126
124 1 2 5 6 126 127
125 1 2 5 6 127 128
126 1 2 5 6 128 129
127 1 2 5 6 129 130
128 1 2 5 6 130 131
129 1 2 5 6 131 132
130 1 2 5 6 132 133
131 1 2 5 6 133 134
132 1 2 5 6 134 135
133 1 2 5 6 135 136
134 1 2 5 6 136 137
135 1 2 5 6 137 138
136 1 2 5 6 138 139
137 1 2 5 6 139 140
138 1 2 5 6 140 141
139 1 2 5 6 141 142
140 1 2 5 6 142 143
141 1 2 5 6 143 144
142 1 2 5 6 144 145
143 1 2 5 6 145 146
144 1 2 5 6 146 147
145 1 2 5 6 147 148
146 1 2 5 6 148 149
147 1 2 5 6 149 150
148 1 2 5 6 150 151
149 1 2 5 6 151 152
150 1 2 5 6 152 153
151 1 2 5 6 153 154
152 1 2 5 6 154 7
153 1 2 6 7 7 155
154 1 2 6 7 155 156
155 1 2 6 7 156 157
156 1 2 6 7 157 158
157 1 2 6 7 158 159
158 1 2 6 7 159 160
159 1 2 6 7 160 161
160 1 2 6 7 161 162
161 1 2 6 7 162 163
162 1 2 6 7 163 164
163 1 2 6 7 164 165
164 1 2 6 7 165 166
165 1 2 6 7 166 167
166 1 2 6 7 167 168
167 1 2 6 7 168 169
168 1 2 6 7 169 170
169 1 2 6 7 170 171
170 1 2 6 7 171 172
171 1 2 6 7 172 173
172 1 2 6 7 173 174
173 1 2 6 7 174 175
174 1 2 6 7 175 176
175 1 2 6 7 176 177
176 1 2 6 7 177 178
177 1 2 6 7 178 179
178 1 2 6 7 179 180
179 1 2 6 7 180 181
180 1 2 6 7 181 182
181 1 2 6 7 182 183
182 1 2 6 7 183 184
183 1 2 6 7 184 185
184 1 2 6 7 185 186
185 1 2 6 7 186 187
186 1 2 6 7 187 188
187 1 2 6 7 188 189
188 1 2 6 7 189 190
189 1 2 6 7 190 191
190 1 2 6 7 191 192
191 1 2 6 7 192 193
192 1 2 6 7 193 194
193 1 2 6 7 194 195
194 1 2 6 7 195 196
195 1 2 6 7 196 197
196 1 2 6 7 197 198
197 1 2 6 7 198 199
198 1 2 6 7 199 200
199 1 2 6 7 200 201
200 1 2 6 7 201 202
201 1 2 6 7 202 203
202 1 2 6 7 203 204
203 1 2 6 7 204 205
204 1 2 6 7 205 206
205 1 2 6 7 206 207
206 1 2 6 7 207 208
207 1 2 6 7 208 209
208 1 2 6 7 209 210
209 1 2 6 7 210 211
210 1 2 6 7 211 212
211 1 2 6 7 212 213
212 1 2 6 7 213 214
213 1 2 6 7 214 215
214 1 2 6 7 215 216
215 1 2 6 7 216 217
216 1 2 6 7 217 218
217 1 2 6 7 218 219
218 1 2 6 7 219 220
219 1 2 6 7 220 221
220 1 2 6 7 221 222
221 1 2 6 7 222 223
222 1 2 6 7 223 224
223 1 2 6 7 224 225
224 1 2 6 7 225 226
225 1 2 6 7 226 227
226 1 2 6 7 227 228
227 1 2 6 7 228 229
228 1 2 6 7 229 6
229 1 2 4 8 6 230
230 1 2 4 8 230 231
231 1 2 4 8 231 232
232 1 2 4 8 232 233
233 1 2 4 8 233 234
234 1 2 4 8 234 235
235 1 2 4 8 235 236
236 1 2 4 8 236 237
237 1 2 4 8 237 238
238 1 2 4 8 238 239
239 1 2 4 8 239 240
240 1 2 4 8 240 1
241 2 2 7 1 381 519 595
242 2 2 7 1 509 360 551
243 2 2 7 1 581 422 605
244 2 2 7 1 510 362 609
245 2 2 7 1 353 586 642
246 2 2 7 1 360 509 552
247 2 2 7 1 540 413 597
248 2 2 7 1 563 593 647
249 2 2 7 1 357 243 604
250 2 2 7 1 367 513 576
251 2 2 7 1 350 581 625
252 2 2 7 1 569 574 602
253 2 2 7 1 362 510 529
254 2 2 7 1 574 569 607
255 2 2 7 1 604 316 625
256 2 2 7 1 6 230 507
257 2 2 7 1 38 8 508
258 2 2 7 1 367 576 592
259 2 2 7 1 519 381 594
260 2 2 7 1 381 384 594
261 2 2 7 1 488 589 590
262 2 2 7 1 404 579 594
263 2 2 7 1 451 517 533
264 2 2 7 1 501 510 609
265 2 2 7 1 513 367 552
266 2 2 7 1 28 29 559
267 2 2 7 1 347 612 619
268 2 2 7 1 612 544 619
269 2 2 7 1 563 417 593
270 2 2 7 1 490 517 618
271 2 2 7 1 522 399 538
272 2 2 7 1 583 490 618
273 2 2 7 1 511 540 597
274 2 2 7 1 11 12 552
275 2 2 7 1 512 345 671
276 2 2 7 1 345 512 701
277 2 2 7 1 659 585 687
278 2 2 7 1 348 555 572
279 2 2 7 1 650 541 677
280 2 2 7 1 585 359 676
281 2 2 7 1 351 386 590
282 2 2 7 1 509 513 552
283 2 2 7 1 517 516 533
284 2 2 7 1 517 451 534
285 2 2 7 1 28 559 632
286 2 2 7 1 396 541 650
287 2 2 7 1 344 406 616
288 2 2 7 1 399 522 584
289 2 2 7 1 596 511 597
290 2 2 7 1 515 369 617
291 2 2 7 1 349 574 607
292 2 2 7 1 416 406 692
293 2 2 7 1 654 394 686
294 2 2 7 1 574 366 602
295 2 2 7 1 608 515 609
296 2 2 7 1 663 388 679
297 2 2 7 1 666 386 674
298 2 2 7 1 367 11 552
299 2 2 7 1 12 360 552
300 2 2 7 1 377 340 388
301 2 2 7 1 339 394 672
302 2 2 7 1 375 341 391
303 2 2 7 1 352 288 641
304 2 2 7 1 344 304 405
305 2 2 7 1 335 188 395
306 2 2 7 1 328 285 639
307 2 2 7 1 339 172 393
308 2 2 7 1 341 250 390
309 2 2 7 1 340 266 387
310 2 2 7 1 523 422 581
311 2 2 7 1 351 282 385
312 2 2 7 1 551 360 702
313 2 2 7 1 220 353 642
314 2 2 7 1 298 331 415
315 2 2 7 1 223 354 651
316 2 2 7 1 332 210 384
317 2 2 7 1 314 383 508
318 2 2 7 1 264 319 387
319 2 2 7 1 178 334 418
320 2 2 7 1 572 555 640
321 2 2 7 1 248 317 390
322 2 2 7 1 354 225 382
323 2 2 7 1 490 516 517
324 2 2 7 1 174 324 393
325 2 2 7 1 162 336 419
326 2 2 7 1 158 322 638
327 2 2 7 1 295 378 665
328 2 2 7 1 190 326 395
329 2 2 7 1 206 380 695
330 2 2 7 1 260 338 414
331 2 2 7 1 213 333 668
332 2 2 7 1 560 599 601
333 2 2 7 1 197 327 412
334 2 2 7 1 606 364 613
335 2 2 7 1 276 337 411
336 2 2 7 1 302 342 405
337 2 2 7 1 318 375 645
338 2 2 7 1 320 377 644
339 2 2 7 1 320 270 376
340 2 2 7 1 318 254 374
341 2 2 7 1 522 521 582
342 2 2 7 1 323 168 370
343 2 2 7 1 200 358 688
344 2 2 7 1 359 585 659
345 2 2 7 1 325 184 372
346 2 2 7 1 402 521 524
347 2 2 7 1 490 423 516
348 2 2 7 1 369 515 608
349 2 2 7 1 587 353 651
350 2 2 7 1 354 587 651
351 2 2 7 1 519 511 595
352 2 2 7 1 576 492 592
353 2 2 7 1 599 486 601
354 2 2 7 1 399 373 677
355 2 2 7 1 350 625 626
356 2 2 7 1 579 519 594
357 2 2 7 1 316 624 625
358 2 2 7 1 573 492 576
359 2 2 7 1 34 35 362
360 2 2 7 1 233 234 361
361 2 2 7 1 560 365 599
362 2 2 7 1 518 606 613
363 2 2 7 1 422 591 605
364 2 2 7 1 529 510 621
365 2 2 7 1 422 391 591
366 2 2 7 1 423 425 516
367 2 2 7 1 475 538 539
368 2 2 7 1 522 582 584
369 2 2 7 1 483 534 547
370 2 2 7 1 534 451 547
371 2 2 7 1 475 537 538
372 2 2 7 1 481 473 526
373 2 2 7 1 481 526 527
374 2 2 7 1 415 416 692
375 2 2 7 1 537 475 567
376 2 2 7 1 418 654 686
377 2 2 7 1 458 456 577
378 2 2 7 1 525 537 567
379 2 2 7 1 414 663 679
380 2 2 7 1 426 424 524
381 2 2 7 1 412 413 676
382 2 2 7 1 411 666 674
383 2 2 7 1 346 564 622
384 2 2 7 1 528 474 568
385 2 2 7 1 447 434 532
386 2 2 7 1 477 470 539
387 2 2 7 1 470 475 539
388 2 2 7 1 534 483 548
389 2 2 7 1 463 525 567
390 2 2 7 1 525 463 575
391 2 2 7 1 434 531 532
392 2 2 7 1 474 528 569
393 2 2 7 1 481 528 568
394 2 2 7 1 463 461 575
395 2 2 7 1 456 532 577
396 2 2 7 1 456 447 532
397 2 2 7 1 575 461 577
398 2 2 7 1 481 527 528
399 2 2 7 1 434 430 531
400 2 2 7 1 33 34 529
401 2 2 7 1 346 622 627
402 2 2 7 1 461 458 577
403 2 2 7 1 424 523 524
404 2 2 7 1 430 427 531
405 2 2 7 1 473 478 526
406 2 2 7 1 431 435 533
407 2 2 7 1 474 569 571
408 2 2 7 1 531 496 532
409 2 2 7 1 435 451 533
410 2 2 7 1 573 576 634
411 2 2 7 1 429 431 533
412 2 2 7 1 428 496 531
413 2 2 7 1 498 536 544
414 2 2 7 1 536 498 543
415 2 2 7 1 543 497 546
416 2 2 7 1 535 443 542
417 2 2 7 1 498 497 543
418 2 2 7 1 443 543 546
419 2 2 7 1 443 535 543
420 2 2 7 1 446 479 542
421 2 2 7 1 537 522 538
422 2 2 7 1 535 536 543
423 2 2 7 1 479 535 542
424 2 2 7 1 432 446 542
425 2 2 7 1 495 522 537
426 2 2 7 1 443 433 542
427 2 2 7 1 438 546 553
428 2 2 7 1 546 497 553
429 2 2 7 1 438 436 546
430 2 2 7 1 455 502 545
431 2 2 7 1 439 442 547
432 2 2 7 1 442 483 547
433 2 2 7 1 437 439 547
434 2 2 7 1 454 455 545
435 2 2 7 1 453 445 553
436 2 2 7 1 459 505 549
437 2 2 7 1 450 486 556
438 2 2 7 1 497 453 553
439 2 2 7 1 482 550 554
440 2 2 7 1 550 482 555
441 2 2 7 1 457 459 549
442 2 2 7 1 445 440 553
443 2 2 7 1 482 450 556
444 2 2 7 1 444 482 554
445 2 2 7 1 555 482 556
446 2 2 7 1 441 444 554
447 2 2 7 1 551 506 566
448 2 2 7 1 506 480 566
449 2 2 7 1 480 565 566
450 2 2 7 1 550 489 554
451 2 2 7 1 480 460 565
452 2 2 7 1 489 448 554
453 2 2 7 1 16 17 570
454 2 2 7 1 19 346 561
455 2 2 7 1 364 25 557
456 2 2 7 1 364 557 562
457 2 2 7 1 26 421 557
458 2 2 7 1 346 20 564
459 2 2 7 1 363 18 561
460 2 2 7 1 557 558 562
461 2 2 7 1 345 16 570
462 2 2 7 1 17 18 363
463 2 2 7 1 24 25 364
464 2 2 7 1 26 27 421
465 2 2 7 1 19 20 346
466 2 2 7 1 22 23 347
467 2 2 7 1 465 471 565
468 2 2 7 1 557 421 558
469 2 2 7 1 20 21 564
470 2 2 7 1 18 19 561
471 2 2 7 1 25 26 557
472 2 2 7 1 565 471 566
473 2 2 7 1 17 363 570
474 2 2 7 1 487 501 563
475 2 2 7 1 462 465 565
476 2 2 7 1 558 421 559
477 2 2 7 1 471 484 566
478 2 2 7 1 484 551 566
479 2 2 7 1 558 559 560
480 2 2 7 1 475 468 567
481 2 2 7 1 468 464 567
482 2 2 7 1 474 467 568
483 2 2 7 1 466 469 568
484 2 2 7 1 470 468 475
485 2 2 7 1 469 473 481
486 2 2 7 1 466 464 468
487 2 2 7 1 471 467 472
488 2 2 7 1 469 468 470
489 2 2 7 1 473 470 477
490 2 2 7 1 465 467 471
491 2 2 7 1 471 472 484
492 2 2 7 1 484 485 509
493 2 2 7 1 513 485 514
494 2 2 7 1 467 466 568
495 2 2 7 1 469 470 473
496 2 2 7 1 484 509 551
497 2 2 7 1 466 468 469
498 2 2 7 1 473 477 478
499 2 2 7 1 469 481 568
500 2 2 7 1 484 472 485
501 2 2 7 1 509 485 513
502 2 2 7 1 472 467 474
503 2 2 7 1 465 466 467
504 2 2 7 1 465 464 466
505 2 2 7 1 493 497 498
506 2 2 7 1 491 493 518
507 2 2 7 1 493 453 497
508 2 2 7 1 510 489 550
509 2 2 7 1 491 453 493
510 2 2 7 1 462 464 465
511 2 2 7 1 464 463 567
512 2 2 7 1 501 489 510
513 2 2 7 1 488 487 563
514 2 2 7 1 487 489 501
515 2 2 7 1 462 463 464
516 2 2 7 1 505 506 512
517 2 2 7 1 452 453 491
518 2 2 7 1 450 452 486
519 2 2 7 1 487 448 489
520 2 2 7 1 449 487 488
521 2 2 7 1 462 461 463
522 2 2 7 1 460 462 565
523 2 2 7 1 505 480 506
524 2 2 7 1 452 445 453
525 2 2 7 1 10 11 367
526 2 2 7 1 444 450 482
527 2 2 7 1 442 449 483
528 2 2 7 1 459 480 505
529 2 2 7 1 460 461 462
530 2 2 7 1 450 445 452
531 2 2 7 1 449 448 487
532 2 2 7 1 15 16 345
533 2 2 7 1 12 13 360
534 2 2 7 1 442 448 449
535 2 2 7 1 459 460 480
536 2 2 7 1 448 441 554
537 2 2 7 1 460 458 461
538 2 2 7 1 444 445 450
539 2 2 7 1 444 440 445
540 2 2 7 1 459 458 460
541 2 2 7 1 442 441 448
542 2 2 7 1 441 440 444
543 2 2 7 1 535 500 536
544 2 2 7 1 457 458 459
545 2 2 7 1 502 457 549
546 2 2 7 1 439 441 442
547 2 2 7 1 455 457 502
548 2 2 7 1 440 438 553
549 2 2 7 1 457 456 458
550 2 2 7 1 439 440 441
551 2 2 7 1 479 500 535
552 2 2 7 1 439 438 440
553 2 2 7 1 499 454 545
554 2 2 7 1 455 456 457
555 2 2 7 1 479 499 500
556 2 2 7 1 451 437 547
557 2 2 7 1 479 454 499
558 2 2 7 1 437 438 439
559 2 2 7 1 455 447 456
560 2 2 7 1 454 447 455
561 2 2 7 1 446 454 479
562 2 2 7 1 435 437 451
563 2 2 7 1 436 443 546
564 2 2 7 1 437 436 438
565 2 2 7 1 435 436 437
566 2 2 7 1 436 433 443
567 2 2 7 1 446 447 454
568 2 2 7 1 446 434 447
569 2 2 7 1 435 433 436
570 2 2 7 1 433 432 542
571 2 2 7 1 495 521 522
572 2 2 7 1 432 434 446
573 2 2 7 1 525 495 537
574 2 2 7 1 431 433 435
575 2 2 7 1 494 495 525
576 2 2 7 1 432 430 434
577 2 2 7 1 431 432 433
578 2 2 7 1 495 476 521
579 2 2 7 1 494 476 495
580 2 2 7 1 428 494 496
581 2 2 7 1 431 430 432
582 2 2 7 1 428 476 494
583 2 2 7 1 429 430 431
584 2 2 7 1 516 429 533
585 2 2 7 1 234 235 530
586 2 2 7 1 514 485 571
587 2 2 7 1 472 474 571
588 2 2 7 1 429 427 430
589 2 2 7 1 428 426 476
590 2 2 7 1 425 429 516
591 2 2 7 1 427 428 531
592 2 2 7 1 485 472 571
593 2 2 7 1 494 525 575
594 2 2 7 1 548 483 578
595 2 2 7 1 32 33 348
596 2 2 7 1 31 32 572
597 2 2 7 1 30 31 365
598 2 2 7 1 425 427 429
599 2 2 7 1 427 426 428
600 2 2 7 1 238 239 573
601 2 2 7 1 239 240 492
602 2 2 7 1 236 237 574
603 2 2 7 1 237 238 366
604 2 2 7 1 235 236 349
605 2 2 7 1 496 494 575
606 2 2 7 1 348 33 529
607 2 2 7 1 32 348 572
608 2 2 7 1 365 31 572
609 2 2 7 1 483 449 578
610 2 2 7 1 239 492 573
611 2 2 7 1 366 238 573
612 2 2 7 1 237 366 574
613 2 2 7 1 349 236 574
614 2 2 7 1 496 575 577
615 2 2 7 1 388 319 679
616 2 2 7 1 513 514 576
617 2 2 7 1 386 321 674
618 2 2 7 1 365 560 623
619 2 2 7 1 532 496 577
620 2 2 7 1 394 324 686
621 2 2 7 1 235 349 530
622 2 2 7 1 354 503 587
623 2 2 7 1 449 488 578
624 2 2 7 1 425 426 427
625 2 2 7 1 396 326 687
626 2 2 7 1 476 426 524
627 2 2 7 1 589 488 620
628 2 2 7 1 343 642 646
629 2 2 7 1 561 346 627
630 2 2 7 1 518 347 606
631 2 2 7 1 406 342 692
632 2 2 7 1 580 420 628
633 2 2 7 1 521 476 524
634 2 2 7 1 561 627 629
635 2 2 7 1 526 520 600
636 2 2 7 1 347 518 612
637 2 2 7 1 425 424 426
638 2 2 7 1 488 590 614
639 2 2 7 1 478 477 511
640 2 2 7 1 363 561 629
641 2 2 7 1 9 10 592
642 2 2 7 1 478 520 526
643 2 2 7 1 600 530 700
644 2 2 7 1 541 399 677
645 2 2 7 1 363 629 631
646 2 2 7 1 13 14 598
647 2 2 7 1 576 514 634
648 2 2 7 1 558 560 601
649 2 2 7 1 527 600 700
650 2 2 7 1 598 14 701
651 2 2 7 1 514 571 602
652 2 2 7 1 570 363 631
653 2 2 7 1 34 362 529
654 2 2 7 1 361 234 530
655 2 2 7 1 417 416 593
656 2 2 7 1 528 527 607
657 2 2 7 1 570 631 637
658 2 2 7 1 580 523 581
659 2 2 7 1 24 364 606
660 2 2 7 1 347 23 606
661 2 2 7 1 544 564 619
662 2 2 7 1 486 452 611
663 2 2 7 1 10 367 592
664 2 2 7 1 361 530 600
665 2 2 7 1 345 570 637
666 2 2 7 1 600 520 635
667 2 2 7 1 564 544 622
668 2 2 7 1 402 524 628
669 2 2 7 1 498 544 612
670 2 2 7 1 518 493 612
671 2 2 7 1 345 637 671
672 2 2 7 1 512 598 701
673 2 2 7 1 564 21 619
674 2 2 7 1 22 347 619
675 2 2 7 1 360 13 598
676 2 2 7 1 556 486 599
677 2 2 7 1 544 536 622
678 2 2 7 1 527 526 600
679 2 2 7 1 362 608 609
680 2 2 7 1 30 365 623
681 2 2 7 1 541 396 585
682 2 2 7 1 605 604 625
683 2 2 7 1 27 2 632
684 2 2 7 1 2 28 632
685 2 2 7 1 511 477 540
686 2 2 7 1 562 558 601
687 2 2 7 1 559 421 632
688 2 2 7 1 1 9 633
689 2 2 7 1 240 1 633
690 2 2 7 1 512 506 702
691 2 2 7 1 505 512 671
692 2 2 7 1 15 345 701
693 2 2 7 1 423 424 425
694 2 2 7 1 571 569 602
695 2 2 7 1 350 580 581
696 2 2 7 1 510 550 621
697 2 2 7 1 555 556 640
698 2 2 7 1 538 399 541
699 2 2 7 1 423 422 424
700 2 2 7 1 601 486 611
701 2 2 7 1 548 578 615
702 2 2 7 1 593 379 647
703 2 2 7 1 413 585 676
704 2 2 7 1 585 396 687
705 2 2 7 1 625 624 626
706 2 2 7 1 478 519 520
707 2 2 7 1 424 422 523
708 2 2 7 1 392 423 490
709 2 2 7 1 598 512 702
710 2 2 7 1 562 611 613
711 2 2 7 1 555 348 621
712 2 2 7 1 364 562 613
713 2 2 7 1 344 616 643
714 2 2 7 1 548 389 618
715 2 2 7 1 569 528 607
716 2 2 7 1 23 24 606
717 2 2 7 1 35 36 608
718 2 2 7 1 232 233 610
719 2 2 7 1 357 604 605
720 2 2 7 1 365 572 640
721 2 2 7 1 361 600 635
722 2 2 7 1 452 491 611
723 2 2 7 1 599 365 640
724 2 2 7 1 616 355 658
725 2 2 7 1 360 598 702
726 2 2 7 1 580 350 638
727 2 2 7 1 559 29 623
728 2 2 7 1 611 491 613
729 2 2 7 1 534 548 618
730 2 2 7 1 493 498 612
731 2 2 7 1 477 539 540
732 2 2 7 1 413 540 585
733 2 2 7 1 362 35 608
734 2 2 7 1 233 361 610
735 2 2 7 1 491 518 613
736 2 2 7 1 635 579 703
737 2 2 7 1 517 534 618
738 2 2 7 1 550 555 621
739 2 2 7 1 540 539 541
740 2 2 7 1 562 601 611
741 2 2 7 1 539 538 541
742 2 2 7 1 389 548 636
743 2 2 7 1 21 22 619
744 2 2 7 1 478 511 519
745 2 2 7 1 328 589 641
746 2 2 7 1 609 515 669
747 2 2 7 1 521 402 582
748 2 2 7 1 348 529 621
749 2 2 7 1 524 523 628
750 2 2 7 1 29 30 623
751 2 2 7 1 536 500 622
752 2 2 7 1 560 559 623
753 2 2 7 1 620 563 647
754 2 2 7 1 596 358 698
755 2 2 7 1 351 590 639
756 2 2 7 1 590 328 639
757 2 2 7 1 622 500 627
758 2 2 7 1 401 628 657
759 2 2 7 1 383 504 508
760 2 2 7 1 500 499 627
761 2 2 7 1 355 617 652
762 2 2 7 1 595 511 596
763 2 2 7 1 548 615 636
764 2 2 7 1 627 499 629
765 2 2 7 1 540 541 585
766 2 2 7 1 589 352 641
767 2 2 7 1 9 592 633
768 2 2 7 1 520 519 579
769 2 2 7 1 322 580 638
770 2 2 7 1 499 545 629
771 2 2 7 1 579 404 586
772 2 2 7 1 617 356 670
773 2 2 7 1 642 586 646
774 2 2 7 1 629 545 631
775 2 2 7 1 607 527 700
776 2 2 7 1 330 596 691
777 2 2 7 1 417 563 669
778 2 2 7 1 545 502 631
779 2 2 7 1 636 410 644
780 2 2 7 1 563 501 669
781 2 2 7 1 501 609 669
782 2 2 7 1 616 515 617
783 2 2 7 1 514 602 634
784 2 2 7 1 488 563 620
785 2 2 7 1 421 27 632
786 2 2 7 1 631 502 637
787 2 2 7 1 366 573 634
788 2 2 7 1 492 240 633
789 2 2 7 1 523 580 628
790 2 2 7 1 502 549 637
791 2 2 7 1 503 382 684
792 2 2 7 1 581 605 625
793 2 2 7 1 394 582 672
794 2 2 7 1 637 549 671
795 2 2 7 1 582 371 672
796 2 2 7 1 392 422 423
797 2 2 7 1 586 404 646
798 2 2 7 1 583 388 663
799 2 2 7 1 586 353 587
800 2 2 7 1 578 488 614
801 2 2 7 1 584 394 654
802 2 2 7 1 408 583 663
803 2 2 7 1 549 505 671
804 2 2 7 1 398 584 654
805 2 2 7 1 14 15 701
806 2 2 7 1 588 589 647
807 2 2 7 1 530 349 700
808 2 2 7 1 506 551 702
809 2 2 7 1 592 492 633
810 2 2 7 1 582 394 584
811 2 2 7 1 377 636 644
812 2 2 7 1 615 410 636
813 2 2 7 1 520 579 635
814 2 2 7 1 583 408 603
815 2 2 7 1 392 391 422
816 2 2 7 1 392 490 603
817 2 2 7 1 602 366 634
818 2 2 7 1 556 599 640
819 2 2 7 1 617 369 630
820 2 2 7 1 591 357 605
821 2 2 7 1 241 7 316
822 2 2 7 1 7 155 624
823 2 2 7 1 643 616 658
824 2 2 7 1 406 515 616
825 2 2 7 1 504 38 508
826 2 2 7 1 230 503 507
827 2 2 7 1 515 417 669
828 2 2 7 1 389 583 618
829 2 2 7 1 610 361 635
830 2 2 7 1 610 635 703
831 2 2 7 1 590 386 614
832 2 2 7 1 603 408 645
833 2 2 7 1 490 583 603
834 2 2 7 1 357 591 681
835 2 2 7 1 352 588 693
836 2 2 7 1 375 603 645
837 2 2 7 1 593 331 665
838 2 2 7 1 155 156 626
839 2 2 7 1 242 241 604
840 2 2 7 1 507 503 684
841 2 2 7 1 594 384 668
842 2 2 7 1 37 38 504
843 2 2 7 1 230 231 503
844 2 2 7 1 378 593 665
845 2 2 7 1 628 420 657
846 2 2 7 1 597 327 688
847 2 2 7 1 591 317 680
848 2 2 7 1 333 594 668
849 2 2 7 1 380 595 695
850 2 2 7 1 588 329 662
851 2 2 7 1 595 330 695
852 2 2 7 1 358 597 688
853 2 2 7 1 36 37 369
854 2 2 7 1 231 232 368
855 2 2 7 1 349 607 700
856 2 2 7 1 615 386 666
857 2 2 7 1 691 596 698
858 2 2 7 1 410 615 666
859 2 2 7 1 406 417 515
860 2 2 7 1 652 617 670
861 2 2 7 1 579 586 703
862 2 2 7 1 375 391 392
863 2 2 7 1 377 388 389
864 2 2 7 1 406 416 417
865 2 2 7 1 358 596 597
866 2 2 7 1 156 157 350
867 2 2 7 1 280 279 660
868 2 2 7 1 296 295 665
869 2 2 7 1 245 244 681
870 2 2 7 1 312 311 667
871 2 2 7 1 212 213 668
872 2 2 7 1 193 194 659
873 2 2 7 1 222 223 651
874 2 2 7 1 177 178 418
875 2 2 7 1 209 210 332
876 2 2 7 1 161 162 419
877 2 2 7 1 299 298 415
878 2 2 7 1 261 260 414
879 2 2 7 1 196 197 412
880 2 2 7 1 283 282 351
881 2 2 7 1 180 181 673
882 2 2 7 1 277 276 411
883 2 2 7 1 293 292 675
884 2 2 7 1 267 266 340
885 2 2 7 1 589 328 590
886 2 2 7 1 164 165 678
887 2 2 7 1 251 250 341
888 2 2 7 1 309 308 652
889 2 2 7 1 228 229 507
890 2 2 7 1 315 314 508
891 2 2 7 1 215 216 682
892 2 2 7 1 171 172 339
893 2 2 7 1 258 257 685
894 2 2 7 1 286 285 328
895 2 2 7 1 219 220 642
896 2 2 7 1 199 200 688
897 2 2 7 1 187 188 335
898 2 2 7 1 274 273 689
899 2 2 7 1 183 184 325
900 2 2 7 1 203 204 691
901 2 2 7 1 290 289 693
902 2 2 7 1 167 168 323
903 2 2 7 1 306 305 643
904 2 2 7 1 588 352 589
905 2 2 7 1 218 219 343
906 2 2 7 1 305 304 344
907 2 2 7 1 255 254 318
908 2 2 7 1 289 288 352
909 2 2 7 1 271 270 320
910 2 2 7 1 202 203 698
911 2 2 7 1 273 272 409
912 2 2 7 1 287 286 641
913 2 2 7 1 330 595 596
914 2 2 7 1 186 187 699
915 2 2 7 1 257 256 407
916 2 2 7 1 216 217 403
917 2 2 7 1 303 302 405
918 2 2 7 1 170 171 697
919 2 2 7 1 355 616 617
920 2 2 7 1 221 222 353
921 2 2 7 1 308 307 355
922 2 2 7 1 165 166 400
923 2 2 7 1 252 251 696
924 2 2 7 1 292 291 329
925 2 2 7 1 387 319 388
926 2 2 7 1 181 182 397
927 2 2 7 1 390 317 391
928 2 2 7 1 393 324 394
929 2 2 7 1 395 326 396
930 2 2 7 1 205 206 695
931 2 2 7 1 268 267 694
932 2 2 7 1 405 342 406
933 2 2 7 1 189 190 395
934 2 2 7 1 284 283 639
935 2 2 7 1 157 158 638
936 2 2 7 1 173 174 393
937 2 2 7 1 414 338 663
938 2 2 7 1 419 336 657
939 2 2 7 1 412 327 413
940 2 2 7 1 411 337 666
941 2 2 7 1 418 334 654
942 2 2 7 1 323 370 371
943 2 2 7 1 300 299 692
944 2 2 7 1 415 331 416
945 2 2 7 1 325 372 373
946 2 2 7 1 244 243 357
947 2 2 7 1 224 225 354
948 2 2 7 1 311 310 356
949 2 2 7 1 401 402 628
950 2 2 7 1 249 248 390
951 2 2 7 1 335 395 650
952 2 2 7 1 208 209 690
953 2 2 7 1 265 264 387
954 2 2 7 1 279 278 321
955 2 2 7 1 192 193 687
956 2 2 7 1 194 195 359
957 2 2 7 1 281 280 385
958 2 2 7 1 36 369 608
959 2 2 7 1 368 232 610
960 2 2 7 1 263 262 319
961 2 2 7 1 176 177 686
962 2 2 7 1 297 296 331
963 2 2 7 1 402 371 582
964 2 2 7 1 322 420 580
965 2 2 7 1 227 228 684
966 2 2 7 1 247 246 317
967 2 2 7 1 160 161 683
968 2 2 7 1 246 245 680
969 2 2 7 1 159 160 322
970 2 2 7 1 226 227 382
971 2 2 7 1 313 312 383
972 2 2 7 1 389 388 583
973 2 2 7 1 262 261 679
974 2 2 7 1 211 212 384
975 2 2 7 1 175 176 324
976 2 2 7 1 195 196 676
977 2 2 7 1 398 399 584
978 2 2 7 1 278 277 674
979 2 2 7 1 191 192 326
980 2 2 7 1 179 180 334
981 2 2 7 1 207 208 380
982 2 2 7 1 294 293 378
983 2 2 7 1 310 309 670
984 2 2 7 1 163 164 336
985 2 2 7 1 214 215 333
986 2 2 7 1 301 300 342
987 2 2 7 1 259 258 338
988 2 2 7 1 182 183 664
989 2 2 7 1 291 290 662
990 2 2 7 1 198 199 327
991 2 2 7 1 275 274 337
992 2 2 7 1 166 167 661
993 2 2 7 1 307 306 658
994 2 2 7 1 269 268 376
995 2 2 7 1 217 218 656
996 2 2 7 1 204 205 330
997 2 2 7 1 256 255 655
998 2 2 7 1 253 252 374
999 2 2 7 1 272 271 653
1000 2 2 7 1 169 170 370
1001 2 2 7 1 201 202 358
1002 2 2 7 1 356 630 667
1003 2 2 7 1 185 186 372
1004 2 2 7 1 630 383 667
1005 2 2 7 1 377 389 636
1006 2 2 7 1 375 392 603
1007 2 2 7 1 589 620 647
1008 2 2 7 1 316 7 624
1009 2 2 7 1 614 386 615
1010 2 2 7 1 503 368 587
1011 2 2 7 1 356 617 630
1012 2 2 7 1 624 155 626
1013 2 2 7 1 241 316 604
1014 2 2 7 1 379 329 588
1015 2 2 7 1 504 383 630
1016 2 2 7 1 391 317 591
1017 2 2 7 1 416 331 593
1018 2 2 7 1 378 379 593
1019 2 2 7 1 333 404 594
1020 2 2 7 1 380 381 595
1021 2 2 7 1 413 327 597
1022 2 2 7 1 578 614 615
1023 2 2 7 1 591 680 681
1024 2 2 7 1 588 662 693
1025 2 2 7 1 369 504 630
1026 2 2 7 1 399 398 649
1027 2 2 7 1 402 401 648
1028 2 2 7 1 373 399 649
1029 2 2 7 1 371 402 648
1030 2 2 7 1 369 37 504
1031 2 2 7 1 231 368 503
1032 2 2 7 1 409 410 689
1033 2 2 7 1 407 408 685
1034 2 2 7 1 403 404 682
1035 2 2 7 1 400 401 678
1036 2 2 7 1 329 379 675
1037 2 2 7 1 335 677 699
1038 2 2 7 1 397 398 673
1039 2 2 7 1 339 672 697
1040 2 2 7 1 341 375 696
1041 2 2 7 1 340 377 694
1042 2 2 7 1 321 386 660
1043 2 2 7 1 386 385 660
1044 2 2 7 1 398 334 673
1045 2 2 7 1 379 378 675
1046 2 2 7 1 401 336 678
1047 2 2 7 1 404 333 682
1048 2 2 7 1 408 338 685
1049 2 2 7 1 410 337 689
1050 2 2 7 1 332 381 690
1051 2 2 7 1 325 649 664
1052 2 2 7 1 323 648 661
1053 2 2 7 1 419 420 683
1054 2 2 7 1 375 374 696
1055 2 2 7 1 672 370 697
1056 2 2 7 1 677 372 699
1057 2 2 7 1 649 397 664
1058 2 2 7 1 377 376 694
1059 2 2 7 1 343 646 656
1060 2 2 7 1 318 645 655
1061 2 2 7 1 648 400 661
1062 2 2 7 1 646 403 656
1063 2 2 7 1 645 407 655
1064 2 2 7 1 320 644 653
1065 2 2 7 1 644 409 653
1066 2 2 7 1 381 380 690
1067 2 2 7 1 420 322 683
1068 2 2 7 1 156 350 626
1069 2 2 7 1 368 610 703
1070 2 2 7 1 586 587 703
1071 2 2 7 1 343 219 642
1072 2 2 7 1 353 222 651
1073 2 2 7 1 286 328 641
1074 2 2 7 1 273 409 689
1075 2 2 7 1 289 352 693
1076 2 2 7 1 305 344 643
1077 2 2 7 1 187 335 699
1078 2 2 7 1 257 407 685
1079 2 2 7 1 216 403 682
1080 2 2 7 1 203 691 698
1081 2 2 7 1 171 339 697
1082 2 2 7 1 308 355 652
1083 2 2 7 1 165 400 678
1084 2 2 7 1 251 341 696
1085 2 2 7 1 292 329 675
1086 2 2 7 1 181 397 673
1087 2 2 7 1 267 340 694
1088 2 2 7 1 283 351 639
1089 2 2 7 1 299 415 692
1090 2 2 7 1 311 356 667
1091 2 2 7 1 244 357 681
1092 2 2 7 1 209 332 690
1093 2 2 7 1 279 321 660
1094 2 2 7 1 385 280 660
1095 2 2 7 1 193 659 687
1096 2 2 7 1 194 359 659
1097 2 2 7 1 331 296 665
1098 2 2 7 1 177 418 686
1099 2 2 7 1 228 507 684
1100 2 2 7 1 680 245 681
1101 2 2 7 1 161 419 683
1102 2 2 7 1 383 312 667
1103 2 2 7 1 384 212 668
1104 2 2 7 1 261 414 679
1105 2 2 7 1 196 412 676
1106 2 2 7 1 277 411 674
1107 2 2 7 1 334 180 673
1108 2 2 7 1 325 373 649
1109 2 2 7 1 378 293 675
1110 2 2 7 1 323 371 648
1111 2 2 7 1 420 419 657
1112 2 2 7 1 335 650 677
1113 2 2 7 1 336 164 678
1114 2 2 7 1 309 652 670
1115 2 2 7 1 410 409 644
1116 2 2 7 1 408 407 645
1117 2 2 7 1 404 403 646
1118 2 2 7 1 401 400 648
1119 2 2 7 1 398 397 649
1120 2 2 7 1 333 215 682
1121 2 2 7 1 338 258 685
1122 2 2 7 1 395 396 650
1123 2 2 7 1 327 199 688
1124 2 2 7 1 337 274 689
1125 2 2 7 1 334 398 654
1126 2 2 7 1 183 325 664
1127 2 2 7 1 336 401 657
1128 2 2 7 1 662 290 693
1129 2 2 7 1 338 408 663
1130 2 2 7 1 204 330 691
1131 2 2 7 1 337 410 666
1132 2 2 7 1 167 323 661
1133 2 2 7 1 306 643 658
1134 2 2 7 1 371 370 672
1135 2 2 7 1 373 372 677
1136 2 2 7 1 218 343 656
1137 2 2 7 1 255 318 655
1138 2 2 7 1 356 310 670
1139 2 2 7 1 321 278 674
1140 2 2 7 1 359 195 676
1141 2 2 7 1 397 182 664
1142 2 2 7 1 329 291 662
1143 2 2 7 1 319 262 679
1144 2 2 7 1 271 320 653
1145 2 2 7 1 326 192 687
1146 2 2 7 1 380 208 690
1147 2 2 7 1 400 166 661
1148 2 2 7 1 324 176 686
1149 2 2 7 1 355 307 658
1150 2 2 7 1 342 300 692
1151 2 2 7 1 317 246 680
1152 2 2 7 1 382 227 684
1153 2 2 7 1 322 160 683
1154 2 2 7 1 403 217 656
1155 2 2 7 1 407 256 655
1156 2 2 7 1 358 202 698
1157 2 2 7 1 376 268 694
1158 2 2 7 1 330 205 695
1159 2 2 7 1 409 272 653
1160 2 2 7 1 374 252 696
1161 2 2 7 1 370 170 697
1162 2 2 7 1 372 186 699
1163 2 2 7 1 350 157 638
1164 2 2 7 1 587 368 703
1165 2 2 7 1 379 588 647
1166 2 2 7 1 8 315 508
1167 2 2 7 1 158 159 322
1168 2 2 7 1 162 163 336
1169 2 2 7 1 168 169 370
1170 2 2 7 1 172 173 393
1171 2 2 7 1 174 175 324
1172 2 2 7 1 178 179 334
1173 2 2 7 1 184 185 372
1174 2 2 7 1 188 189 395
1175 2 2 7 1 190 191 326
1176 2 2 7 1 197 198 327
1177 2 2 7 1 200 201 358
1178 2 2 7 1 206 207 380
1179 2 2 7 1 210 211 384
1180 2 2 7 1 213 214 333
1181 2 2 7 1 220 221 353
1182 2 2 7 1 223 224 354
1183 2 2 7 1 225 226 382
1184 2 2 7 1 243 242 604
1185 2 2 7 1 248 247 317
1186 2 2 7 1 250 249 390
1187 2 2 7 1 254 253 374
1188 2 2 7 1 260 259 338
1189 2 2 7 1 264 263 319
1190 2 2 7 1 266 265 387
1191 2 2 7 1 270 269 376
1192 2 2 7 1 276 275 337
1193 2 2 7 1 282 281 385
1194 2 2 7 1 285 284 639
1195 2 2 7 1 288 287 641
1196 2 2 7 1 295 294 378
1197 2 2 7 1 298 297 331
1198 2 2 7 1 302 301 342
1199 2 2 7 1 304 303 405
1200 2 2 7 1 314 313 383
1201 2 2 7 1 229 6 507
1202 2 2 7 1 318 374 375
1203 2 2 7 1 320 376 377
1204 2 2 7 1 381 332 384
1205 2 2 7 1 339 393 394
1206 2 2 7 1 340 387 388
1207 2 2 7 1 341 390 391
1208 2 2 7 1 344 405 406
1209 2 2 7 1 351 385 386
1210 2 2 7 1 354 382 503
1211 2 2 7 2 905 769 982
1212 2 2 7 2 972 741 1046
1213 2 2 7 2 748 895 937
1214 2 2 7 2 810 966 992
1215 2 2 7 2 750 896 998
1216 2 2 7 2 738 1010 1011
1217 2 2 7 2 895 748 938
1218 2 2 7 2 801 925 984
1219 2 2 7 2 899 755 962
1220 2 2 7 2 960 954 988
1221 2 2 7 2 896 750 915
1222 2 2 7 2 954 960 996
1223 2 2 7 2 81 770 891
1224 2 2 7 2 738 153 1010
1225 2 2 7 2 966 738 1011
1226 2 2 7 2 79 81 891
1227 2 2 7 2 962 755 978
1228 2 2 7 2 964 792 981
1229 2 2 7 2 903 839 918
1230 2 2 7 2 896 889 998
1231 2 2 7 2 755 899 938
1232 2 2 7 2 976 975 1007
1233 2 2 7 2 1000 735 1006
1234 2 2 7 2 993 751 995
1235 2 2 7 2 929 1000 1006
1236 2 2 7 2 904 993 995
1237 2 2 7 2 903 878 1005
1238 2 2 7 2 787 908 923
1239 2 2 7 2 878 968 1005
1240 2 2 7 2 925 897 984
1241 2 2 7 2 769 905 1037
1242 2 2 7 2 65 66 938
1243 2 2 7 2 733 898 1063
1244 2 2 7 2 898 733 1087
1245 2 2 7 2 940 736 958
1246 2 2 7 2 1026 971 1046
1247 2 2 7 2 905 981 1037
1248 2 2 7 2 899 895 938
1249 2 2 7 2 902 903 918
1250 2 2 7 2 839 903 919
1251 2 2 7 2 908 787 969
1252 2 2 7 2 151 738 1053
1253 2 2 7 2 987 809 989
1254 2 2 7 2 897 983 984
1255 2 2 7 2 757 901 1004
1256 2 2 7 2 957 979 987
1257 2 2 7 2 960 737 996
1258 2 2 7 2 1043 786 1073
1259 2 2 7 2 1042 796 1079
1260 2 2 7 2 1039 798 1081
1261 2 2 7 2 808 789 1075
1262 2 2 7 2 754 960 988
1263 2 2 7 2 901 997 998
1264 2 2 7 2 748 65 938
1265 2 2 7 2 66 755 938
1266 2 2 7 2 940 958 1020
1267 2 2 7 2 706 796 1064
1268 2 2 7 2 708 798 1060
1269 2 2 7 2 759 711 789
1270 2 2 7 2 761 713 786
1271 2 2 7 2 708 271 797
1272 2 2 7 2 706 255 795
1273 2 2 7 2 731 91 791
1274 2 2 7 2 711 142 788
1275 2 2 7 2 713 126 785
1276 2 2 7 2 946 987 989
1277 2 2 7 2 810 909 966
1278 2 2 7 2 277 709 799
1279 2 2 7 2 113 747 800
1280 2 2 7 2 748 937 1089
1281 2 2 7 2 306 743 1027
1282 2 2 7 2 290 717 1028
1283 2 2 7 2 261 707 802
1284 2 2 7 2 309 744 1034
1285 2 2 7 2 148 710 807
1286 2 2 7 2 132 712 806
1287 2 2 7 2 245 705 1044
1288 2 2 7 2 709 279 773
1289 2 2 7 2 295 719 1074
1290 2 2 7 2 720 100 768
1291 2 2 7 2 96 772 1078
1292 2 2 7 2 744 311 771
1293 2 2 7 2 902 878 903
1294 2 2 7 2 116 714 1047
1295 2 2 7 2 128 722 785
1296 2 2 7 2 299 730 803
1297 2 2 7 2 717 292 766
1298 2 2 7 2 727 759 1035
1299 2 2 7 2 744 892 1004
1300 2 2 7 2 144 724 788
1301 2 2 7 2 723 761 1032
1302 2 2 7 2 93 721 791
1303 2 2 7 2 257 726 795
1304 2 2 7 2 109 715 1084
1305 2 2 7 2 728 267 764
1306 2 2 7 2 315 8 1071
1307 2 2 7 2 273 725 797
1308 2 2 7 2 103 718 1066
1309 2 2 7 2 729 251 762
1310 2 2 7 2 727 138 758
1311 2 2 7 2 907 908 967
1312 2 2 7 2 106 746 1077
1313 2 2 7 2 723 122 760
1314 2 2 7 2 907 790 910
1315 2 2 7 2 811 878 902
1316 2 2 7 2 731 971 1026
1317 2 2 7 2 957 987 1088
1318 2 2 7 2 901 757 997
1319 2 2 7 2 741 972 1033
1320 2 2 7 2 897 905 982
1321 2 2 7 2 880 962 978
1322 2 2 7 2 751 946 989
1323 2 2 7 2 905 964 981
1324 2 2 7 2 946 751 993
1325 2 2 7 2 784 1032 1091
1326 2 2 7 2 880 959 962
1327 2 2 7 2 42 43 750
1328 2 2 7 2 75 76 749
1329 2 2 7 2 896 915 1008
1330 2 2 7 2 977 810 992
1331 2 2 7 2 779 810 977
1332 2 2 7 2 813 811 902
1333 2 2 7 2 923 863 924
1334 2 2 7 2 967 908 969
1335 2 2 7 2 919 871 932
1336 2 2 7 2 839 919 932
1337 2 2 7 2 922 863 923
1338 2 2 7 2 861 869 912
1339 2 2 7 2 912 869 913
1340 2 2 7 2 799 1039 1081
1341 2 2 7 2 802 1042 1079
1342 2 2 7 2 863 922 949
1343 2 2 7 2 806 1043 1073
1344 2 2 7 2 807 808 1075
1345 2 2 7 2 936 849 961
1346 2 2 7 2 922 911 949
1347 2 2 7 2 812 814 910
1348 2 2 7 2 950 734 1009
1349 2 2 7 2 862 914 953
1350 2 2 7 2 863 858 924
1351 2 2 7 2 858 865 924
1352 2 2 7 2 884 936 961
1353 2 2 7 2 871 919 933
1354 2 2 7 2 911 851 949
1355 2 2 7 2 936 884 955
1356 2 2 7 2 851 911 961
1357 2 2 7 2 914 862 954
1358 2 2 7 2 914 869 953
1359 2 2 7 2 849 851 961
1360 2 2 7 2 884 917 955
1361 2 2 7 2 818 822 917
1362 2 2 7 2 913 869 914
1363 2 2 7 2 74 75 916
1364 2 2 7 2 1009 734 1012
1365 2 2 7 2 815 818 917
1366 2 2 7 2 909 812 910
1367 2 2 7 2 917 822 955
1368 2 2 7 2 866 861 912
1369 2 2 7 2 823 819 918
1370 2 2 7 2 954 862 956
1371 2 2 7 2 839 823 918
1372 2 2 7 2 962 959 1019
1373 2 2 7 2 819 817 918
1374 2 2 7 2 816 815 917
1375 2 2 7 2 921 886 929
1376 2 2 7 2 886 921 928
1377 2 2 7 2 885 928 931
1378 2 2 7 2 831 920 927
1379 2 2 7 2 885 886 928
1380 2 2 7 2 928 831 931
1381 2 2 7 2 920 831 928
1382 2 2 7 2 867 834 927
1383 2 2 7 2 921 920 928
1384 2 2 7 2 920 867 927
1385 2 2 7 2 834 820 927
1386 2 2 7 2 883 911 922
1387 2 2 7 2 821 831 927
1388 2 2 7 2 931 826 942
1389 2 2 7 2 885 931 942
1390 2 2 7 2 824 826 931
1391 2 2 7 2 890 843 930
1392 2 2 7 2 830 827 932
1393 2 2 7 2 871 830 932
1394 2 2 7 2 827 825 932
1395 2 2 7 2 843 842 930
1396 2 2 7 2 893 847 934
1397 2 2 7 2 874 838 941
1398 2 2 7 2 935 870 939
1399 2 2 7 2 870 935 940
1400 2 2 7 2 847 845 934
1401 2 2 7 2 838 870 941
1402 2 2 7 2 870 832 939
1403 2 2 7 2 826 828 942
1404 2 2 7 2 870 940 941
1405 2 2 7 2 846 849 936
1406 2 2 7 2 832 829 939
1407 2 2 7 2 894 937 948
1408 2 2 7 2 868 894 948
1409 2 2 7 2 947 868 948
1410 2 2 7 2 877 935 939
1411 2 2 7 2 841 885 942
1412 2 2 7 2 836 877 939
1413 2 2 7 2 848 868 947
1414 2 2 7 2 833 841 942
1415 2 2 7 2 859 853 947
1416 2 2 7 2 944 874 945
1417 2 2 7 2 859 947 948
1418 2 2 7 2 875 876 943
1419 2 2 7 2 853 850 947
1420 2 2 7 2 840 874 944
1421 2 2 7 2 944 945 946
1422 2 2 7 2 937 872 948
1423 2 2 7 2 872 859 948
1424 2 2 7 2 856 863 949
1425 2 2 7 2 852 856 949
1426 2 2 7 2 895 872 937
1427 2 2 7 2 855 862 953
1428 2 2 7 2 858 857 861
1429 2 2 7 2 66 67 755
1430 2 2 7 2 854 853 855
1431 2 2 7 2 861 857 869
1432 2 2 7 2 865 861 866
1433 2 2 7 2 854 855 953
1434 2 2 7 2 873 872 895
1435 2 2 7 2 50 51 809
1436 2 2 7 2 52 53 751
1437 2 2 7 2 855 860 862
1438 2 2 7 2 57 58 734
1439 2 2 7 2 59 60 752
1440 2 2 7 2 885 881 886
1441 2 2 7 2 852 854 856
1442 2 2 7 2 855 853 859
1443 2 2 7 2 856 854 857
1444 2 2 7 2 858 861 865
1445 2 2 7 2 855 859 860
1446 2 2 7 2 61 62 733
1447 2 2 7 2 64 65 748
1448 2 2 7 2 856 858 863
1449 2 2 7 2 877 896 935
1450 2 2 7 2 856 857 858
1451 2 2 7 2 852 853 854
1452 2 2 7 2 54 55 735
1453 2 2 7 2 752 60 951
1454 2 2 7 2 841 881 885
1455 2 2 7 2 734 58 952
1456 2 2 7 2 881 879 904
1457 2 2 7 2 873 899 900
1458 2 2 7 2 860 872 873
1459 2 2 7 2 860 859 872
1460 2 2 7 2 57 734 950
1461 2 2 7 2 61 733 951
1462 2 2 7 2 873 895 899
1463 2 2 7 2 59 752 952
1464 2 2 7 2 841 879 881
1465 2 2 7 2 857 854 953
1466 2 2 7 2 869 857 953
1467 2 2 7 2 877 889 896
1468 2 2 7 2 879 840 944
1469 2 2 7 2 851 852 949
1470 2 2 7 2 852 850 853
1471 2 2 7 2 56 57 950
1472 2 2 7 2 60 61 951
1473 2 2 7 2 889 875 943
1474 2 2 7 2 58 59 952
1475 2 2 7 2 877 875 889
1476 2 2 7 2 851 850 852
1477 2 2 7 2 894 893 898
1478 2 2 7 2 841 840 879
1479 2 2 7 2 836 875 877
1480 2 2 7 2 840 838 874
1481 2 2 7 2 850 848 947
1482 2 2 7 2 868 893 894
1483 2 2 7 2 849 850 851
1484 2 2 7 2 875 837 876
1485 2 2 7 2 833 840 841
1486 2 2 7 2 838 832 870
1487 2 2 7 2 849 848 850
1488 2 2 7 2 868 847 893
1489 2 2 7 2 837 830 871
1490 2 2 7 2 836 837 875
1491 2 2 7 2 833 838 840
1492 2 2 7 2 848 847 868
1493 2 2 7 2 836 830 837
1494 2 2 7 2 828 833 942
1495 2 2 7 2 833 832 838
1496 2 2 7 2 846 848 849
1497 2 2 7 2 829 836 939
1498 2 2 7 2 828 832 833
1499 2 2 7 2 846 847 848
1500 2 2 7 2 829 830 836
1501 2 2 7 2 846 845 847
1502 2 2 7 2 888 920 921
1503 2 2 7 2 828 829 832
1504 2 2 7 2 844 846 936
1505 2 2 7 2 829 827 830
1506 2 2 7 2 845 890 934
1507 2 2 7 2 844 845 846
1508 2 2 7 2 845 843 890
1509 2 2 7 2 828 827 829
1510 2 2 7 2 888 867 920
1511 2 2 7 2 844 843 845
1512 2 2 7 2 826 827 828
1513 2 2 7 2 842 887 930
1514 2 2 7 2 887 867 888
1515 2 2 7 2 826 825 827
1516 2 2 7 2 842 867 887
1517 2 2 7 2 825 839 932
1518 2 2 7 2 835 843 844
1519 2 2 7 2 835 842 843
1520 2 2 7 2 842 834 867
1521 2 2 7 2 824 825 826
1522 2 2 7 2 825 823 839
1523 2 2 7 2 831 824 931
1524 2 2 7 2 835 834 842
1525 2 2 7 2 908 922 923
1526 2 2 7 2 821 824 831
1527 2 2 7 2 824 823 825
1528 2 2 7 2 908 883 922
1529 2 2 7 2 822 834 835
1530 2 2 7 2 821 823 824
1531 2 2 7 2 821 819 823
1532 2 2 7 2 907 883 908
1533 2 2 7 2 822 820 834
1534 2 2 7 2 820 821 927
1535 2 2 7 2 820 819 821
1536 2 2 7 2 884 816 917
1537 2 2 7 2 818 820 822
1538 2 2 7 2 864 883 907
1539 2 2 7 2 883 882 911
1540 2 2 7 2 818 819 820
1541 2 2 7 2 882 816 884
1542 2 2 7 2 864 882 883
1543 2 2 7 2 818 817 819
1544 2 2 7 2 864 816 882
1545 2 2 7 2 817 902 918
1546 2 2 7 2 43 44 915
1547 2 2 7 2 822 835 955
1548 2 2 7 2 844 936 955
1549 2 2 7 2 862 860 956
1550 2 2 7 2 873 900 956
1551 2 2 7 2 835 844 955
1552 2 2 7 2 815 817 818
1553 2 2 7 2 817 813 902
1554 2 2 7 2 814 816 864
1555 2 2 7 2 860 873 956
1556 2 2 7 2 911 882 961
1557 2 2 7 2 871 933 963
1558 2 2 7 2 47 48 957
1559 2 2 7 2 46 47 753
1560 2 2 7 2 44 45 736
1561 2 2 7 2 45 46 958
1562 2 2 7 2 814 815 816
1563 2 2 7 2 815 813 817
1564 2 2 7 2 73 74 737
1565 2 2 7 2 70 71 959
1566 2 2 7 2 71 72 754
1567 2 2 7 2 72 73 960
1568 2 2 7 2 69 70 880
1569 2 2 7 2 882 884 961
1570 2 2 7 2 753 47 957
1571 2 2 7 2 736 45 958
1572 2 2 7 2 46 753 958
1573 2 2 7 2 837 871 963
1574 2 2 7 2 737 74 916
1575 2 2 7 2 73 737 960
1576 2 2 7 2 880 70 959
1577 2 2 7 2 71 754 959
1578 2 2 7 2 754 72 960
1579 2 2 7 2 900 899 962
1580 2 2 7 2 44 736 915
1581 2 2 7 2 876 837 963
1582 2 2 7 2 814 813 815
1583 2 2 7 2 814 864 910
1584 2 2 7 2 1015 742 1058
1585 2 2 7 2 786 722 1073
1586 2 2 7 2 732 1027 1029
1587 2 2 7 2 789 724 1075
1588 2 2 7 2 739 1024 1040
1589 2 2 7 2 734 952 1012
1590 2 2 7 2 735 904 995
1591 2 2 7 2 876 976 1007
1592 2 2 7 2 796 726 1079
1593 2 2 7 2 798 725 1081
1594 2 2 7 2 864 907 910
1595 2 2 7 2 1012 952 1014
1596 2 2 7 2 906 912 986
1597 2 2 7 2 904 735 1000
1598 2 2 7 2 874 941 973
1599 2 2 7 2 812 813 814
1600 2 2 7 2 976 876 1001
1601 2 2 7 2 865 866 897
1602 2 2 7 2 952 752 1014
1603 2 2 7 2 67 68 978
1604 2 2 7 2 906 866 912
1605 2 2 7 2 48 49 979
1606 2 2 7 2 916 986 1086
1607 2 2 7 2 1014 752 1016
1608 2 2 7 2 63 64 985
1609 2 2 7 2 900 962 1019
1610 2 2 7 2 986 913 1086
1611 2 2 7 2 63 985 1087
1612 2 2 7 2 956 900 988
1613 2 2 7 2 809 51 989
1614 2 2 7 2 52 751 989
1615 2 2 7 2 752 951 1016
1616 2 2 7 2 945 874 973
1617 2 2 7 2 75 749 916
1618 2 2 7 2 750 43 915
1619 2 2 7 2 804 805 980
1620 2 2 7 2 913 914 996
1621 2 2 7 2 1016 951 1023
1622 2 2 7 2 944 946 993
1623 2 2 7 2 904 879 993
1624 2 2 7 2 909 965 966
1625 2 2 7 2 54 735 995
1626 2 2 7 2 751 53 995
1627 2 2 7 2 950 929 1006
1628 2 2 7 2 8 39 1071
1629 2 2 7 2 941 940 1020
1630 2 2 7 2 755 67 978
1631 2 2 7 2 951 733 1023
1632 2 2 7 2 957 48 979
1633 2 2 7 2 916 749 986
1634 2 2 7 2 906 986 1021
1635 2 2 7 2 929 950 1009
1636 2 2 7 2 929 886 1000
1637 2 2 7 2 881 904 1000
1638 2 2 7 2 1033 972 1058
1639 2 2 7 2 1023 733 1063
1640 2 2 7 2 985 898 1087
1641 2 2 7 2 735 55 1006
1642 2 2 7 2 56 950 1006
1643 2 2 7 2 64 748 985
1644 2 2 7 2 921 929 1009
1645 2 2 7 2 912 913 986
1646 2 2 7 2 997 750 998
1647 2 2 7 2 784 926 970
1648 2 2 7 2 3 50 1017
1649 2 2 7 2 49 3 1017
1650 2 2 7 2 865 897 925
1651 2 2 7 2 991 992 1011
1652 2 2 7 2 946 945 987
1653 2 2 7 2 68 4 1018
1654 2 2 7 2 4 69 1018
1655 2 2 7 2 894 898 1089
1656 2 2 7 2 898 893 1063
1657 2 2 7 2 733 62 1087
1658 2 2 7 2 979 809 987
1659 2 2 7 2 812 811 813
1660 2 2 7 2 954 956 988
1661 2 2 7 2 731 792 971
1662 2 2 7 2 992 966 1011
1663 2 2 7 2 965 738 966
1664 2 2 7 2 935 896 1008
1665 2 2 7 2 51 52 989
1666 2 2 7 2 787 923 926
1667 2 2 7 2 910 790 1013
1668 2 2 7 2 810 811 812
1669 2 2 7 2 963 933 1002
1670 2 2 7 2 901 794 1029
1671 2 2 7 2 879 944 993
1672 2 2 7 2 905 866 906
1673 2 2 7 2 810 812 909
1674 2 2 7 2 811 780 878
1675 2 2 7 2 898 985 1089
1676 2 2 7 2 736 940 1008
1677 2 2 7 2 753 957 1088
1678 2 2 7 2 777 933 1005
1679 2 2 7 2 914 954 996
1680 2 2 7 2 53 54 995
1681 2 2 7 2 41 42 997
1682 2 2 7 2 76 77 999
1683 2 2 7 2 743 1003 1027
1684 2 2 7 2 986 749 1021
1685 2 2 7 2 314 315 1071
1686 2 2 7 2 973 753 1088
1687 2 2 7 2 985 748 1089
1688 2 2 7 2 909 910 1013
1689 2 2 7 2 958 753 1020
1690 2 2 7 2 933 919 1005
1691 2 2 7 2 886 881 1000
1692 2 2 7 2 924 865 925
1693 2 2 7 2 925 801 970
1694 2 2 7 2 42 750 997
1695 2 2 7 2 749 76 999
1696 2 2 7 2 987 945 1088
1697 2 2 7 2 940 935 1008
1698 2 2 7 2 919 903 1005
1699 2 2 7 2 924 925 926
1700 2 2 7 2 923 924 926
1701 2 2 7 2 933 777 1022
1702 2 2 7 2 55 56 1006
1703 2 2 7 2 897 866 905
1704 2 2 7 2 975 716 1025
1705 2 2 7 2 901 998 1056
1706 2 2 7 2 753 973 1020
1707 2 2 7 2 790 907 967
1708 2 2 7 2 915 736 1008
1709 2 2 7 2 965 710 1053
1710 2 2 7 2 738 965 1053
1711 2 2 7 2 888 921 1009
1712 2 2 7 2 787 926 1091
1713 2 2 7 2 888 1009 1012
1714 2 2 7 2 716 976 1061
1715 2 2 7 2 887 888 1012
1716 2 2 7 2 746 983 1077
1717 2 2 7 2 1004 743 1034
1718 2 2 7 2 897 982 983
1719 2 2 7 2 1002 933 1022
1720 2 2 7 2 887 1012 1014
1721 2 2 7 2 926 925 970
1722 2 2 7 2 744 1004 1034
1723 2 2 7 2 978 68 1018
1724 2 2 7 2 905 906 964
1725 2 2 7 2 930 887 1014
1726 2 2 7 2 979 49 1017
1727 2 2 7 2 792 964 971
1728 2 2 7 2 930 1014 1016
1729 2 2 7 2 970 801 1030
1730 2 2 7 2 913 996 1086
1731 2 2 7 2 983 718 1077
1732 2 2 7 2 704 991 1011
1733 2 2 7 2 943 805 1056
1734 2 2 7 2 998 889 1056
1735 2 2 7 2 890 930 1016
1736 2 2 7 2 889 943 1056
1737 2 2 7 2 901 1003 1004
1738 2 2 7 2 988 900 1019
1739 2 2 7 2 50 809 1017
1740 2 2 7 2 973 941 1020
1741 2 2 7 2 890 1016 1023
1742 2 2 7 2 959 754 1019
1743 2 2 7 2 69 880 1018
1744 2 2 7 2 808 965 1013
1745 2 2 7 2 934 890 1023
1746 2 2 7 2 892 771 1070
1747 2 2 7 2 740 975 1048
1748 2 2 7 2 926 784 1091
1749 2 2 7 2 934 1023 1063
1750 2 2 7 2 967 782 1035
1751 2 2 7 2 810 780 811
1752 2 2 7 2 968 796 1042
1753 2 2 7 2 876 963 1001
1754 2 2 7 2 969 786 1043
1755 2 2 7 2 893 934 1063
1756 2 2 7 2 776 968 1042
1757 2 2 7 2 759 967 1035
1758 2 2 7 2 782 969 1043
1759 2 2 7 2 798 1022 1060
1760 2 2 7 2 62 63 1087
1761 2 2 7 2 737 916 1086
1762 2 2 7 2 805 943 1041
1763 2 2 7 2 937 894 1089
1764 2 2 7 2 943 876 1007
1765 2 2 7 2 880 978 1018
1766 2 2 7 2 809 979 1017
1767 2 2 7 2 971 972 1046
1768 2 2 7 2 782 967 969
1769 2 2 7 2 784 970 1031
1770 2 2 7 2 798 1002 1022
1771 2 2 7 2 964 906 1021
1772 2 2 7 2 1022 765 1060
1773 2 2 7 2 796 968 990
1774 2 2 7 2 779 780 810
1775 2 2 7 2 878 780 990
1776 2 2 7 2 980 805 1041
1777 2 2 7 2 945 973 1088
1778 2 2 7 2 754 988 1019
1779 2 2 7 2 745 977 992
1780 2 2 7 2 7 241 704
1781 2 2 7 2 154 7 1010
1782 2 2 7 2 805 901 1056
1783 2 2 7 2 968 777 1005
1784 2 2 7 2 749 999 1021
1785 2 2 7 2 796 990 1064
1786 2 2 7 2 965 909 1013
1787 2 2 7 2 990 763 1064
1788 2 2 7 2 789 808 1013
1789 2 2 7 2 974 740 1028
1790 2 2 7 2 968 878 990
1791 2 2 7 2 977 745 1044
1792 2 2 7 2 241 242 991
1793 2 2 7 2 717 974 1028
1794 2 2 7 2 1031 747 1047
1795 2 2 7 2 892 757 1004
1796 2 2 7 2 705 977 1044
1797 2 2 7 2 982 768 1066
1798 2 2 7 2 39 40 892
1799 2 2 7 2 78 79 891
1800 2 2 7 2 719 980 1074
1801 2 2 7 2 714 1031 1047
1802 2 2 7 2 772 981 1078
1803 2 2 7 2 980 766 1074
1804 2 2 7 2 981 721 1078
1805 2 2 7 2 718 982 1066
1806 2 2 7 2 715 984 1084
1807 2 2 7 2 984 746 1084
1808 2 2 7 2 974 767 1041
1809 2 2 7 2 964 1021 1090
1810 2 2 7 2 40 41 757
1811 2 2 7 2 77 78 756
1812 2 2 7 2 996 737 1086
1813 2 2 7 2 1002 798 1039
1814 2 2 7 2 774 1002 1039
1815 2 2 7 2 976 1024 1061
1816 2 2 7 2 805 794 901
1817 2 2 7 2 992 991 994
1818 2 2 7 2 975 1025 1048
1819 2 2 7 2 972 1015 1058
1820 2 2 7 2 759 789 790
1821 2 2 7 2 761 786 787
1822 2 2 7 2 983 746 984
1823 2 2 7 2 1001 774 1040
1824 2 2 7 2 242 243 994
1825 2 2 7 2 152 153 738
1826 2 2 7 2 244 245 1044
1827 2 2 7 2 115 116 1047
1828 2 2 7 2 263 264 1050
1829 2 2 7 2 247 248 1052
1830 2 2 7 2 150 151 1053
1831 2 2 7 2 83 84 1054
1832 2 2 7 2 134 135 1057
1833 2 2 7 2 308 309 1034
1834 2 2 7 2 131 132 806
1835 2 2 7 2 99 100 720
1836 2 2 7 2 147 148 807
1837 2 2 7 2 118 119 1062
1838 2 2 7 2 298 299 803
1839 2 2 7 2 260 261 802
1840 2 2 7 2 112 113 800
1841 2 2 7 2 282 283 739
1842 2 2 7 2 276 277 799
1843 2 2 7 2 102 103 1066
1844 2 2 7 2 266 267 728
1845 2 2 7 2 716 975 976
1846 2 2 7 2 250 251 729
1847 2 2 7 2 86 87 1033
1848 2 2 7 2 289 290 1028
1849 2 2 7 2 301 302 1069
1850 2 2 7 2 137 138 727
1851 2 2 7 2 1070 314 1071
1852 2 2 7 2 285 286 716
1853 2 2 7 2 305 306 1027
1854 2 2 7 2 121 122 723
1855 2 2 7 2 125 126 713
1856 2 2 7 2 269 270 1076
1857 2 2 7 2 105 106 1077
1858 2 2 7 2 141 142 711
1859 2 2 7 2 89 90 1026
1860 2 2 7 2 286 287 1025
1861 2 2 7 2 740 974 975
1862 2 2 7 2 253 254 1082
1863 2 2 7 2 90 91 731
1864 2 2 7 2 304 305 732
1865 2 2 7 2 254 255 706
1866 2 2 7 2 140 141 1083
1867 2 2 7 2 288 289 740
1868 2 2 7 2 270 271 708
1869 2 2 7 2 124 125 1085
1870 2 2 7 2 272 273 797
1871 2 2 7 2 982 718 983
1872 2 2 7 2 108 109 1084
1873 2 2 7 2 256 257 795
1874 2 2 7 2 92 93 791
1875 2 2 7 2 302 303 793
1876 2 2 7 2 800 747 1030
1877 2 2 7 2 283 284 1024
1878 2 2 7 2 1003 743 1004
1879 2 2 7 2 87 88 741
1880 2 2 7 2 307 308 743
1881 2 2 7 2 143 144 788
1882 2 2 7 2 291 292 717
1883 2 2 7 2 709 773 774
1884 2 2 7 2 127 128 785
1885 2 2 7 2 785 722 786
1886 2 2 7 2 717 766 767
1887 2 2 7 2 788 724 789
1888 2 2 7 2 791 721 792
1889 2 2 7 2 795 726 796
1890 2 2 7 2 119 120 783
1891 2 2 7 2 797 725 798
1892 2 2 7 2 275 276 1081
1893 2 2 7 2 111 112 1080
1894 2 2 7 2 135 136 781
1895 2 2 7 2 803 730 1049
1896 2 2 7 2 720 768 769
1897 2 2 7 2 728 764 765
1898 2 2 7 2 729 762 763
1899 2 2 7 2 259 260 1079
1900 2 2 7 2 806 712 1043
1901 2 2 7 2 807 710 808
1902 2 2 7 2 95 96 1078
1903 2 2 7 2 802 707 1042
1904 2 2 7 2 243 244 745
1905 2 2 7 2 799 709 1039
1906 2 2 7 2 84 85 742
1907 2 2 7 2 310 311 744
1908 2 2 7 2 248 249 778
1909 2 2 7 2 146 147 1075
1910 2 2 7 2 294 295 1074
1911 2 2 7 2 264 265 775
1912 2 2 7 2 130 131 1073
1913 2 2 7 2 278 279 709
1914 2 2 7 2 114 115 747
1915 2 2 7 2 280 281 773
1916 2 2 7 2 757 41 997
1917 2 2 7 2 77 756 999
1918 2 2 7 2 262 263 707
1919 2 2 7 2 296 297 719
1920 2 2 7 2 98 99 1072
1921 2 2 7 2 759 790 967
1922 2 2 7 2 808 710 965
1923 2 2 7 2 313 314 1070
1924 2 2 7 2 246 247 705
1925 2 2 7 2 149 150 710
1926 2 2 7 2 82 83 770
1927 2 2 7 2 312 313 771
1928 2 2 7 2 776 777 968
1929 2 2 7 2 297 298 1068
1930 2 2 7 2 97 98 772
1931 2 2 7 2 133 134 712
1932 2 2 7 2 281 282 1067
1933 2 2 7 2 787 786 969
1934 2 2 7 2 117 118 714
1935 2 2 7 2 265 266 1065
1936 2 2 7 2 129 130 722
1937 2 2 7 2 249 250 1059
1938 2 2 7 2 101 102 768
1939 2 2 7 2 293 294 766
1940 2 2 7 2 85 86 1058
1941 2 2 7 2 145 146 724
1942 2 2 7 2 136 137 1055
1943 2 2 7 2 284 285 1061
1944 2 2 7 2 120 121 1051
1945 2 2 7 2 94 95 721
1946 2 2 7 2 300 301 730
1947 2 2 7 2 258 259 726
1948 2 2 7 2 110 111 715
1949 2 2 7 2 274 275 725
1950 2 2 7 2 88 89 1046
1951 2 2 7 2 268 269 764
1952 2 2 7 2 303 304 1045
1953 2 2 7 2 104 105 718
1954 2 2 7 2 252 253 762
1955 2 2 7 2 287 288 1048
1956 2 2 7 2 139 140 758
1957 2 2 7 2 1027 1003 1029
1958 2 2 7 2 107 108 746
1959 2 2 7 2 742 1015 1054
1960 2 2 7 2 892 1070 1071
1961 2 2 7 2 123 124 760
1962 2 2 7 2 1015 770 1054
1963 2 2 7 2 1032 761 1091
1964 2 2 7 2 777 765 1022
1965 2 2 7 2 756 972 1090
1966 2 2 7 2 976 1001 1040
1967 2 2 7 2 780 763 990
1968 2 2 7 2 1024 976 1040
1969 2 2 7 2 1021 999 1090
1970 2 2 7 2 7 704 1010
1971 2 2 7 2 774 1001 1002
1972 2 2 7 2 999 756 1090
1973 2 2 7 2 790 789 1013
1974 2 2 7 2 1010 704 1011
1975 2 2 7 2 975 974 1007
1976 2 2 7 2 39 892 1071
1977 2 2 7 2 704 241 991
1978 2 2 7 2 745 992 994
1979 2 2 7 2 717 767 974
1980 2 2 7 2 891 770 1015
1981 2 2 7 2 705 779 977
1982 2 2 7 2 767 980 1041
1983 2 2 7 2 714 784 1031
1984 2 2 7 2 719 804 980
1985 2 2 7 2 767 766 980
1986 2 2 7 2 981 772 1037
1987 2 2 7 2 792 721 981
1988 2 2 7 2 769 768 982
1989 2 2 7 2 1030 747 1031
1990 2 2 7 2 715 801 984
1991 2 2 7 2 1007 974 1041
1992 2 2 7 2 972 756 1015
1993 2 2 7 2 972 971 1090
1994 2 2 7 2 1003 901 1029
1995 2 2 7 2 1001 963 1002
1996 2 2 7 2 756 891 1015
1997 2 2 7 2 805 804 1049
1998 2 2 7 2 794 805 1049
1999 2 2 7 2 780 779 1036
2000 2 2 7 2 777 776 1038
2001 2 2 7 2 763 780 1036
2002 2 2 7 2 765 777 1038
2003 2 2 7 2 40 757 892
2004 2 2 7 2 756 78 891
2005 2 2 7 2 971 964 1090
2006 2 2 7 2 713 761 1085
2007 2 2 7 2 711 759 1083
2008 2 2 7 2 708 1060 1076
2009 2 2 7 2 793 794 1069
2010 2 2 7 2 706 1064 1082
2011 2 2 7 2 783 784 1062
2012 2 2 7 2 781 782 1057
2013 2 2 7 2 778 779 1052
2014 2 2 7 2 775 776 1050
2015 2 2 7 2 776 707 1050
2016 2 2 7 2 800 801 1080
2017 2 2 7 2 779 705 1052
2018 2 2 7 2 782 712 1057
2019 2 2 7 2 739 1040 1067
2020 2 2 7 2 784 714 1062
2021 2 2 7 2 728 1038 1065
2022 2 2 7 2 794 730 1069
2023 2 2 7 2 729 1036 1059
2024 2 2 7 2 1060 764 1076
2025 2 2 7 2 727 1035 1055
2026 2 2 7 2 759 758 1083
2027 2 2 7 2 1064 762 1082
2028 2 2 7 2 723 1032 1051
2029 2 2 7 2 761 760 1085
2030 2 2 7 2 1040 773 1067
2031 2 2 7 2 1038 775 1065
2032 2 2 7 2 720 1037 1072
2033 2 2 7 2 1036 778 1059
2034 2 2 7 2 1035 781 1055
2035 2 2 7 2 1032 783 1051
2036 2 2 7 2 732 1029 1045
2037 2 2 7 2 803 804 1068
2038 2 2 7 2 801 715 1080
2039 2 2 7 2 1029 793 1045
2040 2 2 7 2 1037 772 1072
2041 2 2 7 2 804 719 1068
2042 2 2 7 2 991 242 994
2043 2 2 7 2 943 1007 1041
2044 2 2 7 2 761 787 1091
2045 2 2 7 2 716 286 1025
2046 2 2 7 2 740 289 1028
2047 2 2 7 2 732 305 1027
2048 2 2 7 2 743 308 1034
2049 2 2 7 2 270 708 1076
2050 2 2 7 2 90 731 1026
2051 2 2 7 2 125 713 1085
2052 2 2 7 2 254 706 1082
2053 2 2 7 2 302 793 1069
2054 2 2 7 2 141 711 1083
2055 2 2 7 2 87 741 1033
2056 2 2 7 2 739 283 1024
2057 2 2 7 2 119 783 1062
2058 2 2 7 2 276 799 1081
2059 2 2 7 2 112 800 1080
2060 2 2 7 2 135 781 1057
2061 2 2 7 2 260 802 1079
2062 2 2 7 2 84 742 1054
2063 2 2 7 2 745 244 1044
2064 2 2 7 2 248 778 1052
2065 2 2 7 2 147 807 1075
2066 2 2 7 2 264 775 1050
2067 2 2 7 2 131 806 1073
2068 2 2 7 2 747 115 1047
2069 2 2 7 2 707 263 1050
2070 2 2 7 2 99 720 1072
2071 2 2 7 2 705 247 1052
2072 2 2 7 2 710 150 1053
2073 2 2 7 2 770 83 1054
2074 2 2 7 2 298 803 1068
2075 2 2 7 2 712 134 1057
2076 2 2 7 2 282 739 1067
2077 2 2 7 2 714 118 1062
2078 2 2 7 2 801 800 1030
2079 2 2 7 2 728 765 1038
2080 2 2 7 2 729 763 1036
2081 2 2 7 2 266 728 1065
2082 2 2 7 2 768 102 1066
2083 2 2 7 2 720 769 1037
2084 2 2 7 2 804 803 1049
2085 2 2 7 2 250 729 1059
2086 2 2 7 2 86 1033 1058
2087 2 2 7 2 794 793 1029
2088 2 2 7 2 784 783 1032
2089 2 2 7 2 782 781 1035
2090 2 2 7 2 779 778 1036
2091 2 2 7 2 730 301 1069
2092 2 2 7 2 776 775 1038
2093 2 2 7 2 137 727 1055
2094 2 2 7 2 774 773 1040
2095 2 2 7 2 709 774 1039
2096 2 2 7 2 707 776 1042
2097 2 2 7 2 285 716 1061
2098 2 2 7 2 121 723 1051
2099 2 2 7 2 712 782 1043
2100 2 2 7 2 730 794 1049
2101 2 2 7 2 764 269 1076
2102 2 2 7 2 718 105 1077
2103 2 2 7 2 765 764 1060
2104 2 2 7 2 763 762 1064
2105 2 2 7 2 89 1026 1046
2106 2 2 7 2 762 253 1082
2107 2 2 7 2 304 732 1045
2108 2 2 7 2 758 140 1083
2109 2 2 7 2 1024 284 1061
2110 2 2 7 2 288 740 1048
2111 2 2 7 2 742 85 1058
2112 2 2 7 2 778 249 1059
2113 2 2 7 2 781 136 1055
2114 2 2 7 2 775 265 1065
2115 2 2 7 2 783 120 1051
2116 2 2 7 2 773 281 1067
2117 2 2 7 2 1025 287 1048
2118 2 2 7 2 719 297 1068
2119 2 2 7 2 722 130 1073
2120 2 2 7 2 766 294 1074
2121 2 2 7 2 724 146 1075
2122 2 2 7 2 772 98 1072
2123 2 2 7 2 741 88 1046
2124 2 2 7 2 721 95 1078
2125 2 2 7 2 771 313 1070
2126 2 2 7 2 726 259 1079
2127 2 2 7 2 793 303 1045
2128 2 2 7 2 715 111 1080
2129 2 2 7 2 725 275 1081
2130 2 2 7 2 760 124 1085
2131 2 2 7 2 746 108 1084
2132 2 2 7 2 243 745 994
2133 2 2 7 2 970 1030 1031
2134 2 2 7 2 81 82 770
2135 2 2 7 2 91 92 791
2136 2 2 7 2 93 94 721
2137 2 2 7 2 96 97 772
2138 2 2 7 2 100 101 768
2139 2 2 7 2 103 104 718
2140 2 2 7 2 106 107 746
2141 2 2 7 2 109 110 715
2142 2 2 7 2 113 114 747
2143 2 2 7 2 116 117 714
2144 2 2 7 2 122 123 760
2145 2 2 7 2 126 127 785
2146 2 2 7 2 128 129 722
2147 2 2 7 2 132 133 712
2148 2 2 7 2 138 139 758
2149 2 2 7 2 142 143 788
2150 2 2 7 2 144 145 724
2151 2 2 7 2 148 149 710
2152 2 2 7 2 151 152 738
2153 2 2 7 2 153 154 1010
2154 2 2 7 2 245 246 705
2155 2 2 7 2 251 252 762
2156 2 2 7 2 255 256 795
2157 2 2 7 2 257 258 726
2158 2 2 7 2 261 262 707
2159 2 2 7 2 267 268 764
2160 2 2 7 2 271 272 797
2161 2 2 7 2 273 274 725
2162 2 2 7 2 277 278 709
2163 2 2 7 2 279 280 773
2164 2 2 7 2 290 291 717
2165 2 2 7 2 292 293 766
2166 2 2 7 2 295 296 719
2167 2 2 7 2 299 300 730
2168 2 2 7 2 306 307 743
2169 2 2 7 2 309 310 744
2170 2 2 7 2 311 312 771
2171 2 2 7 2 79 5 80
2172 2 2 7 2 79 80 81
2173 2 2 7 2 706 795 796
2174 2 2 7 2 708 797 798
2175 2 2 7 2 711 788 789
2176 2 2 7 2 713 785 786
2177 2 2 7 2 723 760 761
2178 2 2 7 2 727 758 759
2179 2 2 7 2 731 791 792
2180 2 2 7 2 744 771 892
$EndElements
